<svg width="69" height="69" viewBox="0 0 69 69" fill="none" xmlns="http://www.w3.org/2000/svg">
<path fill-rule="evenodd" clip-rule="evenodd" d="M31.8028 0.578387C23.4562 1.39353 16.2221 5.60933 11.6271 12.3361C9.50946 15.4363 8.03835 18.8865 7.35341 22.3598L7.19603 23.1577L5.73303 23.2225C4.4756 23.2785 4.13824 23.3491 3.33246 23.7256C2.02683 24.3356 1.19959 25.1444 0.560277 26.4361L0.0292969 27.5086V34.5492V41.5898L0.560277 42.6623C1.19973 43.9542 2.02285 44.7589 3.34455 45.384L4.2942 45.8332H7.09112C10.1637 45.8332 10.2528 45.8108 10.9671 44.8561C11.2547 44.4719 11.2616 44.2788 11.338 34.7164C11.4127 25.3273 11.4274 24.9123 11.7345 23.4406C13.6632 14.1954 20.5514 7.33628 29.8125 5.43901C32.1059 4.9692 35.9697 4.96011 38.2717 5.41928C47.5519 7.27028 54.5457 14.2409 56.4289 23.5168C56.7462 25.0794 56.7525 25.2933 56.7525 34.4783C56.7525 45.0125 56.7473 45.0778 55.673 48.3642C53.3811 55.3759 47.8695 60.8325 40.9013 62.9888C38.8487 63.624 37.3428 63.8952 35.0329 64.0461C33.0837 64.1734 32.7938 64.282 32.167 65.1202C31.756 65.6698 31.756 67.0162 32.167 67.5658C32.9388 68.598 33.723 68.7612 36.5745 68.4832C39.9925 68.1499 42.8877 67.336 45.9481 65.8478C51.2041 63.2921 55.2806 59.3732 58.1482 54.12C59.2604 52.0828 60.3397 49.0801 60.8014 46.7386L60.9588 45.9408L62.4218 45.8759C63.6792 45.82 64.0166 45.7493 64.8224 45.3729C66.128 44.7628 66.9552 43.9541 67.5946 42.6623L68.1255 41.5898V34.5492V27.5086L67.5946 26.4361C66.9552 25.1444 66.128 24.3356 64.8224 23.7256C64.0166 23.3491 63.6792 23.2785 62.4218 23.2225L60.9588 23.1577L60.8014 22.3598C59.659 16.5674 56.2284 10.7608 51.7239 6.99463C46.5892 2.70176 40.3218 0.425947 33.8642 0.509548C33.0041 0.520761 32.0765 0.551703 31.8028 0.578387ZM32.0871 9.6568C27.8474 10.1957 24.2586 11.9495 21.2692 14.9437C19.1275 17.0887 17.866 19.0651 16.9086 21.7749C15.9598 24.4602 15.9516 24.5604 15.9516 33.4137C15.9516 40.7167 15.9753 41.5409 16.217 42.6396C17.0256 46.3162 18.6288 49.2523 21.2644 51.8838C23.9034 54.5186 26.8712 56.1323 30.5233 56.9183C32.2129 57.2819 35.9419 57.2819 37.6315 56.9183C41.3155 56.1254 44.2024 54.5541 46.8904 51.879C49.523 49.2588 51.1282 46.3206 51.9378 42.6396C52.1795 41.5409 52.2032 40.7167 52.2032 33.4137C52.2032 26.1108 52.1795 25.2866 51.9378 24.1878C51.1282 20.5069 49.523 17.5686 46.8904 14.9485C44.2502 12.3208 41.4907 10.7929 37.9158 9.97914C36.729 9.70903 33.2084 9.51429 32.0871 9.6568ZM37.3679 14.5157C39.9021 15.1805 41.8896 16.3304 43.7496 18.2081C45.5752 20.0507 46.7392 22.12 47.4035 24.7041C47.6277 25.576 47.654 26.4901 47.654 33.4137C47.654 41.8621 47.6577 41.8177 46.7814 44.0381C45.4255 47.4748 42.4744 50.4211 39.0322 51.7749C37.289 52.4606 36.2967 52.6325 34.0774 52.6331C32.4194 52.6337 31.7883 52.5739 30.852 52.3276C28.2388 51.6404 26.3282 50.539 24.4052 48.611C22.5846 46.786 21.4172 44.713 20.7513 42.1234C20.5271 41.2515 20.5008 40.3374 20.5008 33.4137C20.5008 24.8886 20.4904 25.0082 21.4354 22.646C22.1029 20.9774 23.0607 19.5596 24.4743 18.1484C26.7077 15.9185 28.8067 14.8681 32.3715 14.1969C33.2051 14.0398 36.3089 14.2379 37.3679 14.5157ZM6.78205 34.5492V41.3622H5.99376C5.34621 41.3622 5.14291 41.2999 4.85645 41.0137L4.50744 40.6654V34.5492V28.433L4.85645 28.0847C5.14291 27.7986 5.34621 27.7363 5.99376 27.7363H6.78205V34.5492ZM63.2984 28.0847L63.6474 28.433V34.5492V40.6654L63.2984 41.0137C63.0119 41.2999 62.8086 41.3622 62.1611 41.3622H61.3728V34.5492V27.7363H62.1611C62.8086 27.7363 63.0119 27.7986 63.2984 28.0847Z" fill="url(#paint0_linear_1035_255)"/>
<defs>
<linearGradient id="paint0_linear_1035_255" x1="2.99" y1="24.9331" x2="61.8679" y2="50.3909" gradientUnits="userSpaceOnUse">
<stop stop-color="#948D73"/>
<stop offset="0.556085" stop-color="#958E74" stop-opacity="0.285417"/>
<stop offset="1" stop-color="#968F74" stop-opacity="0.1"/>
</linearGradient>
</defs>
</svg>
