<svg width="182" height="114" viewBox="0 0 182 114" fill="none" xmlns="http://www.w3.org/2000/svg">
<path fill-rule="evenodd" clip-rule="evenodd" d="M153.824 0.807732C153.128 1.17505 151.796 2.40228 150.863 3.53468C149.93 4.66672 148.234 6.4375 147.093 7.46939C145.614 8.80632 144.954 9.68534 144.796 10.5283C144.392 12.678 146.015 14.5957 148.25 14.6091C149.326 14.6155 149.964 14.2733 151.844 12.6798C153.101 11.6147 154.694 10.0643 155.384 9.23522L156.637 7.72772L157.989 8.5119C158.733 8.94327 159.281 9.49814 159.208 9.74479C158.412 12.4144 158.389 12.8921 158.969 14.6629C159.297 15.6658 160.519 18.1185 161.684 20.1133C164.593 25.0944 164.633 25.5792 162.363 28.241C160.297 30.6622 159.322 33.2869 159.686 35.4409C160.165 38.2723 163.846 43.1076 168.552 47.0869C172.785 50.6656 174.398 52.7591 174.398 54.6739C174.398 55.3126 174.24 55.3792 173.15 55.2026C171.42 54.9223 167.15 52.7998 164.923 51.1132C162.545 49.3127 161.038 48.8308 158.332 49.0045C155.353 49.196 153.185 50.3337 150.359 53.1905C145.977 57.6185 143.697 62.7433 144.007 67.4653C144.548 75.7007 151.724 78.75 157.872 73.3577C159.339 72.0714 161.101 71.9468 162.482 73.0318C163.727 74.0099 163.734 76.2096 162.504 79.7561C161.29 83.2548 161.469 85.2347 163.384 89.5088C164.181 91.287 164.831 93.1979 164.829 93.7553C164.824 95.1134 163.42 98.0516 162.008 99.6579C160.595 101.266 160.132 101.31 160.402 99.8118C160.694 98.1847 159.669 91.907 158.894 90.581C158.476 89.8676 157.645 89.2225 156.568 88.7766C155.099 88.1687 154.618 88.1294 152.688 88.461C151.476 88.6694 149.736 89.1917 148.821 89.6224C146.674 90.6331 146.041 90.477 145.173 88.7232C143.527 85.3982 141.692 84.1536 138.439 84.1547C133.435 84.1565 130.13 88.548 130.117 95.2115C130.113 97.3867 130.097 97.4232 129.139 97.4253C127.301 97.4288 125.432 98.1861 123.965 99.5213C122.73 100.644 122.299 100.835 121.256 100.714C120.574 100.635 118.853 100.795 117.431 101.069L114.846 101.567L114.375 100.442C113.056 97.2894 109.899 95.1548 106.554 95.1548C102.09 95.1548 98.9069 98.1621 98.0648 103.174C97.9422 103.904 97.7293 104.495 97.5922 104.489C97.4547 104.483 96.4656 104.169 95.3939 103.793C92.2178 102.677 90.3061 102.974 87.1906 105.069C85.3827 106.284 85.281 106.308 83.7757 105.887C82.9226 105.648 81.1696 104.761 79.88 103.915C76.9923 102.021 75.6223 101.901 74.1099 103.412C72.9836 104.537 72.7714 105.926 73.4863 107.494C74.0387 108.705 78.0608 111.398 80.6913 112.319C84.2026 113.547 86.132 113.595 88.3547 112.507C89.4009 111.995 90.7532 111.256 91.3597 110.865C92.4622 110.154 92.4636 110.154 94.0168 110.858C94.9284 111.271 96.3462 111.566 97.4452 111.57C101.147 111.586 103.734 109.329 104.873 105.091C105.941 101.115 107.08 101.038 108.47 104.845C109.807 108.506 111.539 109.193 117.182 108.297C119.522 107.925 121.245 107.832 122.256 108.021C123.097 108.178 124.351 108.18 125.041 108.025C126.346 107.731 128.195 106.228 128.524 105.194C128.667 104.744 129.265 104.552 130.946 104.417C133.702 104.196 135.657 103.306 136.531 101.875C137.066 100.999 137.196 100.083 137.197 97.2105C137.199 93.8207 137.64 91.4073 138.258 91.4073C138.413 91.4073 138.634 91.7839 138.749 92.2439C139.04 93.4 141.372 95.7196 143.06 96.5321C143.831 96.9033 145.43 97.2724 146.614 97.3524C148.424 97.4745 149.064 97.3467 150.643 96.548C151.77 95.9772 152.648 95.7267 152.841 95.9203C153.138 96.2165 153.174 97.1316 153.068 101.7C152.996 104.814 155.477 107.604 158.869 108.224C163.324 109.037 169.234 103.904 171.215 97.5C172.388 93.7057 172.141 91.6777 169.891 86.6576L168.635 83.8546L169.568 81.0937C170.821 77.3862 170.858 73.6054 169.666 71.0596C167.844 67.1685 163.858 64.9461 159.351 65.3078C156.957 65.4996 155.469 66.1422 153.277 67.9314C151.996 68.9767 151.763 69.0557 151.368 68.5801C150.69 67.7644 151.148 64.5732 152.256 62.3887C152.778 61.3614 154.193 59.5082 155.402 58.2703C158.064 55.5451 158.857 55.417 161.468 57.289C165.662 60.2959 170.991 62.3968 174.53 62.4393C177.318 62.4726 178.841 61.6006 180.211 59.1869C181.186 57.4716 181.306 56.9458 181.301 54.4276C181.296 52.1473 181.132 51.287 180.459 50.0042C178.952 47.1329 177.244 45.1232 173.837 42.2119C170.807 39.6233 166.604 35.0701 166.604 34.3768C166.604 34.2264 167.344 33.2713 168.248 32.2543C172.399 27.586 172.223 24.1064 167.422 15.9188C165.878 13.286 165.818 13.0854 166.201 11.8082C167.519 7.41277 165.675 4.40768 159.831 1.42984C156.923 -0.0514699 155.693 -0.178865 153.824 0.807732ZM27.8081 10.7296C15.8565 13.8575 7.69461 25.7529 9.30835 37.6905C9.77033 41.1071 11.2548 45.7793 12.9631 49.1942L14.1652 51.5966L13.1069 52.4569C11.7022 53.5988 11.1269 55.0851 10.8803 58.2095C10.5799 62.0193 10.5182 62.1746 8.95053 63.0547C7.1685 64.0551 6.53222 64.9953 6.27182 67.0131C6.11877 68.1996 6.24809 68.9244 6.80112 69.9842C7.20358 70.7553 7.53128 72.0292 7.52916 72.8152C7.52739 73.6015 7.79877 75.9668 8.13285 78.0716C8.83149 82.4749 8.9112 82.3121 5.76131 82.9144C2.87535 83.4661 1.62545 84.2219 0.807778 85.9096C-0.0463886 87.6711 -0.0772108 88.8446 0.624262 92.8228C0.915833 94.4772 1.15497 96.3693 1.15533 97.0275C1.15603 98.8694 2.34712 100.446 4.55286 101.524C6.68704 102.567 6.99668 102.953 7.36371 105.038C8.03294 108.838 10.9582 111.224 14.946 111.224C19.3642 111.224 22.096 108.548 22.9272 103.405C23.1061 102.296 23.3105 102.079 24.5112 101.72C26.1695 101.223 27.903 99.3581 28.4139 97.5212C28.6183 96.7862 28.7863 94.8604 28.7873 93.2418C28.7894 90.0446 29.1533 88.9302 30.1938 88.9302C30.7054 88.9302 31.0047 89.4104 31.4526 90.9498C34.3332 100.847 42.4363 103.941 47.4589 97.0619C48.0952 96.1899 49.1371 94.9315 49.7741 94.2652C52.1417 91.7874 52.4036 90.304 50.7909 88.5017C48.6921 86.1555 45.2142 87.4107 42.7955 91.3875C42.0788 92.5663 41.2753 93.5306 41.0106 93.5306C40.211 93.5306 39.0479 91.5432 38.1566 88.6535C36.7338 84.0418 34.0877 81.7406 30.2066 81.7406C27.7794 81.7406 25.7834 82.7067 24.0641 84.7128C22.3508 86.7121 21.7039 88.8067 21.7039 92.355C21.7039 94.7705 21.6057 95.2999 21.1583 95.2999C20.2364 95.2999 17.9138 96.6447 17.1411 97.6263C16.424 98.5368 16.2884 99.0453 15.8522 102.466C15.6847 103.78 15.4965 104.147 14.9903 104.147C14.5244 104.147 14.2739 103.78 14.0971 102.839C13.559 99.9728 11.0209 96.4875 9.00721 95.8488C8.47331 95.6796 8.21823 95.1042 7.92099 93.4C7.34564 90.0998 7.3956 89.6387 8.32983 89.6344C9.50781 89.6295 12.5206 88.1195 13.6936 86.9464C15.7637 84.8759 16.1431 82.3188 15.1497 77.1328C14.8574 75.6073 14.6023 73.4575 14.5829 72.3555C14.5634 71.2536 14.4326 69.9538 14.292 69.4672C14.0854 68.7524 14.2916 68.2899 15.3637 67.0591C17.033 65.1422 17.8025 62.9142 17.8224 59.9381L17.838 57.6125L19.5052 59.5588C25.8656 66.9837 30.5824 70.5288 34.1004 70.5288C35.6373 70.5288 39.7416 68.2573 42.224 66.0332C45.0558 63.4956 49.0142 58.7735 51.311 55.1923C52.936 52.659 53.1833 52.4321 54.8665 51.9342L56.6754 51.3992L58.5336 52.648C60.8 54.1714 61.9372 54.2263 65.4488 52.981C67.2489 52.3426 68.4347 51.6529 69.3611 50.7049L70.6911 49.3449L72.4072 50.0205C75.0962 51.0793 78.408 51.4891 80.9588 51.0786C84.2362 50.5513 86.978 49.0006 91.2658 45.2478C93.8907 42.9505 95.4839 41.8138 96.2913 41.6627C97.9833 41.3456 99.9092 42.0799 100.53 43.2788C101.926 45.9757 104.263 46.3876 108.764 44.7301C111.456 43.7385 111.621 43.7201 113.471 44.1993C119.193 45.682 123.626 43.8422 125.511 39.2029C125.938 38.1505 126.566 37.2018 126.905 37.0942C128.181 36.6894 129.212 35.1599 129.212 33.6698C129.212 32.502 129 32.049 128.062 31.2128C126.694 29.9913 125.575 29.9202 123.502 30.9227C121.65 31.818 120.35 33.3 119.256 35.7608C118.457 37.5603 118.386 37.6187 116.997 37.6187C116.208 37.6187 115.167 37.3596 114.683 37.0433C113.462 36.2439 111.101 36.3684 108.171 37.3858L105.711 38.2408L104.892 37.3511C104.442 36.8617 103.197 36.0563 102.125 35.5609C100.543 34.8294 99.6105 34.6557 97.1653 34.6355C94.4104 34.6129 93.9718 34.7095 92.0158 35.7697C90.84 36.407 88.4532 38.2132 86.7123 39.7833C84.971 41.3534 82.9041 42.9749 82.1187 43.3861C79.9728 44.5107 77.0589 44.3631 73.8785 42.9689C69.8458 41.2006 67.9181 41.5427 65.5335 44.4495C64.1405 46.1473 62.2344 46.899 61.5617 46.0153C60.84 45.068 59.4222 44.3422 58.2927 44.3422C57.6543 44.3422 57.1318 44.2085 57.1318 44.045C57.1318 43.8815 57.4506 42.5025 57.8403 40.9804C61.224 27.7651 53.1227 14.0896 39.9106 10.7144C36.3423 9.80283 31.325 9.8092 27.8081 10.7296ZM38.3791 17.6585C44.5435 19.4671 49.3727 24.3222 50.9708 30.3175C51.6121 32.7239 51.5919 36.9767 50.9269 39.5274C48.9171 47.2344 41.7312 57.9012 35.571 62.3218C34.0604 63.4057 34.0027 63.4174 32.914 62.8555C31.2127 61.9779 26.0448 56.5512 23.5288 53.0011C20.8777 49.26 17.7338 42.9827 16.8878 39.7419C14.3341 29.9573 19.8471 20.2768 29.498 17.5997C31.7788 16.967 36.1198 16.9956 38.3791 17.6585ZM139.324 22.7942C135.94 24.1205 136.891 29.4796 140.51 29.4796C141.968 29.4796 143.739 28.1628 144.075 26.8294C144.432 25.4069 143.431 23.5151 142.006 22.9202C140.586 22.3278 140.522 22.325 139.324 22.7942ZM31.0923 24.6453C26.1812 26.27 23.3711 29.9881 23.3711 34.8609C23.3711 43.9898 34.0618 48.7649 40.8505 42.6688C43.2291 40.5324 44.095 38.7652 44.3001 35.6295C44.5099 32.4238 43.7751 30.1017 41.8659 27.9353C39.2789 24.9995 34.4646 23.5296 31.0923 24.6453ZM35.5278 31.7833C36.8149 32.4482 37.2921 33.3099 37.2921 34.9685C37.2921 37.8476 33.9371 39.3318 31.6928 37.4456C29.831 35.8808 30.0358 33.1896 32.1129 31.9248C33.4489 31.1109 34.1681 31.0812 35.5278 31.7833ZM63.292 91.7407C62.2288 92.189 61.0288 93.8292 61.0288 94.8346C61.0288 95.9705 61.9337 97.6677 62.7807 98.1203C63.1556 98.3209 63.9615 98.4848 64.5716 98.4848C66.0539 98.4848 66.934 97.9692 67.5794 96.7225C68.3674 95.2001 68.2356 94.0281 67.1401 92.8274C66.0943 91.6812 64.5011 91.2311 63.292 91.7407Z" fill="url(#paint0_linear_1035_368)" fill-opacity="0.12"/>
<defs>
<linearGradient id="paint0_linear_1035_368" x1="0.129882" y1="36.5977" x2="201.91" y2="71.1065" gradientUnits="userSpaceOnUse">
<stop stop-color="white"/>
<stop offset="0.21875" stop-color="white" stop-opacity="0.14"/>
<stop offset="1" stop-color="white" stop-opacity="0.37"/>
</linearGradient>
</defs>
</svg>
