<svg width="67" height="67" viewBox="0 0 67 67" fill="none" xmlns="http://www.w3.org/2000/svg">
<path fill-rule="evenodd" clip-rule="evenodd" d="M22.8569 0.886245C23.0207 0.951498 26.0493 2.90922 29.5867 5.2368L36.0186 9.46883L47.1692 9.47115C59.6804 9.47387 59.3698 9.45249 61.4175 10.4498C63.6998 11.5611 65.5361 13.898 66.0531 16.3483C66.3559 17.7839 66.3541 57.8364 66.0513 59.2599C65.5002 61.849 63.6621 64.1165 61.1727 65.2774C59.227 66.1849 60.8712 66.1346 33.1213 66.1346C11.5895 66.1346 7.7821 66.1057 6.95628 65.9362C4.02166 65.3336 1.38403 62.9638 0.359665 60.0091L0.0525894 59.1237L0.0148926 42.6125C-0.0263901 24.5541 -0.0495834 25.1404 0.778854 23.3543C1.35642 22.1092 2.32528 20.9106 3.42021 20.0868L4.36463 19.3762L4.43988 17.9303C4.56663 15.4918 5.32977 13.7566 7.02531 12.0507C8.74668 10.3189 10.4964 9.61991 13.4412 9.4875L15.3698 9.40072L17.8169 5.538C19.1627 3.4134 20.3764 1.55063 20.5137 1.39832C21.0194 0.837885 22.1271 0.595809 22.8569 0.886245ZM18.8773 12.0913L15.0579 18.1193L21.6147 18.1547C25.221 18.1742 31.0952 18.1742 34.6687 18.1547L41.1657 18.1193L32.0002 12.0913C26.9592 8.77598 22.8037 6.06342 22.7657 6.06342C22.7278 6.06342 20.9779 8.77598 18.8773 12.0913ZM42.8624 13.9474C42.9344 14.0131 44.4013 14.9908 46.122 16.1203L49.2506 18.1736L52.6363 18.2146C55.8051 18.2529 56.0463 18.2735 56.4028 18.5364C57.1273 19.0704 57.3532 19.5056 57.3532 20.367C57.3532 21.2285 57.1272 21.6639 56.4026 22.1976C56.0218 22.4783 55.9944 22.4787 31.834 22.5466L7.64664 22.6148L6.9415 22.9819C5.8967 23.5256 5.46674 23.9362 4.94275 24.8896L4.47095 25.748L4.42677 29.5964L4.38272 33.4448L9.25935 33.4471C14.8367 33.4499 15.3626 33.5144 17.2339 34.4258C18.1401 34.867 18.6591 35.2415 19.455 36.0282C23.7938 40.3172 22.5401 47.4313 16.9891 50.02C15.2921 50.8115 14.7032 50.8769 9.25935 50.8796L4.38272 50.8819L4.42677 54.7303L4.47095 58.5787L4.94275 59.4371C5.46674 60.3906 5.8967 60.8012 6.9415 61.3448L7.64664 61.712H33.1213H58.5959L59.301 61.3448C60.3458 60.8012 60.7758 60.3906 61.2998 59.4371L61.7716 58.5787V37.8041V17.0294L61.4297 16.3483C60.8387 15.1712 59.6954 14.2501 58.4578 13.9548C57.8559 13.8112 42.7047 13.804 42.8624 13.9474ZM11.3606 14.2906C10.0766 14.8805 9.05458 16.2302 8.86653 17.5846L8.78009 18.2062L9.31154 18.1627C9.8347 18.1199 9.86287 18.0879 11.1265 16.1017C11.8326 14.9922 12.4102 14.0574 12.4102 14.0243C12.4102 13.8879 12.0237 13.986 11.3606 14.2906ZM4.40191 42.1711V46.5382L9.40709 46.4963L14.4123 46.4545L15.1174 46.0874C16.1633 45.543 16.5929 45.1326 17.1137 44.1797C17.5438 43.3927 17.5824 43.2251 17.5783 42.1634C17.5747 41.2216 17.5113 40.8782 17.239 40.3243C16.6636 39.1538 15.5156 38.2271 14.2742 37.9308C14.0464 37.8764 11.7318 37.8258 9.13094 37.818L4.40191 37.8041V42.1711Z" fill="url(#paint0_linear_1035_277)"/>
<defs>
<linearGradient id="paint0_linear_1035_277" x1="-0.00103662" y1="21.532" x2="66.1531" y2="37.9524" gradientUnits="userSpaceOnUse">
<stop stop-color="#948D73"/>
<stop offset="0.666586" stop-color="#958E74" stop-opacity="0.285417"/>
<stop offset="1" stop-color="#968F74" stop-opacity="0.1"/>
</linearGradient>
</defs>
</svg>
