<svg width="20" height="21" viewBox="0 0 20 21" fill="none" xmlns="http://www.w3.org/2000/svg">
<path fill-rule="evenodd" clip-rule="evenodd" d="M11.2934 0.688999C11.4411 0.754453 11.5745 0.893359 11.6312 1.04058C11.6605 1.1166 11.674 2.45908 11.674 5.30629V9.46108L13.0059 9.46195C14.2181 9.46274 14.3525 9.4694 14.502 9.53615C14.7446 9.64456 14.8572 9.82255 14.8572 10.0975C14.8572 10.2939 14.8401 10.3426 14.7185 10.4923C14.6422 10.5862 13.5845 11.7821 12.3679 13.15C10.8468 14.8601 10.1127 15.6571 10.0176 15.7015C9.84182 15.7836 9.6606 15.7836 9.48483 15.7015C9.38969 15.6571 8.65559 14.8601 7.13453 13.15C5.91794 11.7821 4.86018 10.5862 4.78387 10.4923C4.66129 10.3413 4.64519 10.2948 4.64519 10.0912C4.64519 9.89337 4.66238 9.83997 4.7668 9.71304C4.96265 9.47499 5.0154 9.46743 6.49601 9.46408L7.82736 9.46108L7.83794 5.2475C7.84839 1.06139 7.849 1.03321 7.93107 0.925121C7.9765 0.865263 8.06342 0.779752 8.12423 0.735065C8.23062 0.656883 8.29011 0.653455 9.70402 0.644786C10.8681 0.637614 11.1982 0.646795 11.2934 0.688999ZM19.3561 17.1748L19.345 19.8446L19.24 20.0647C19.1067 20.3445 18.8918 20.5559 18.6074 20.6871L18.3836 20.7903H9.75121H1.1188L0.895041 20.6871C0.610592 20.5559 0.395763 20.3445 0.262371 20.0647L0.157419 19.8446L0.146324 17.1748L0.135229 14.5051H1.41815H2.70107V16.3966V18.2881H9.75121H16.8013V16.3966V14.5051H18.0843H19.3672L19.3561 17.1748Z" fill="black"/>
</svg>
