<svg width="102" height="108" viewBox="0 0 102 108" fill="none" xmlns="http://www.w3.org/2000/svg">
<g opacity="0.07">
<mask id="path-1-outside-1_1035_380" maskUnits="userSpaceOnUse" x="0.0683594" y="0.71582" width="102" height="107" fill="black">
<rect fill="white" x="0.0683594" y="0.71582" width="102" height="107"/>
<path fill-rule="evenodd" clip-rule="evenodd" d="M15.9242 1.97683C14.9057 2.48721 14.682 3.35472 14.7465 6.54844C14.798 9.09832 14.8548 9.50912 15.2244 10.0048C16.0109 11.0597 17.3327 11.1378 18.282 10.1858C18.7607 9.70584 18.7733 9.60891 18.7733 6.40539C18.7733 4.54058 18.6825 2.9476 18.5637 2.72496C18.3238 2.27518 17.3402 1.71439 16.7993 1.71888C16.5978 1.72051 16.204 1.83663 15.9242 1.97683ZM31.6165 1.9905C30.6857 2.52721 30.5915 2.98943 30.5837 7.05699C30.5766 10.8246 30.5823 10.8746 31.0831 11.4715C31.6959 12.2014 32.4845 12.3863 33.3821 12.0102C34.5158 11.5351 34.6817 10.8025 34.6084 6.59395C34.5458 2.99555 34.5382 2.94168 34.0252 2.42783C33.401 1.80255 32.2917 1.60113 31.6165 1.9905ZM51.8201 1.91581C51.5838 2.01152 51.1945 2.33967 50.9552 2.64475C50.5268 3.19065 50.5201 3.3288 50.5201 11.5355V19.8717L51.1137 20.5382L51.7073 21.2047L60.1593 21.2622L68.6111 21.3196L69.2831 20.7178L69.9548 20.1157V11.5113V2.90678L69.2902 2.3113L68.6255 1.71582L60.4377 1.72868C55.9343 1.73582 52.0566 1.8201 51.8201 1.91581ZM82.9846 2.38375L82.2669 3.10351V6.30744V9.51136L82.9846 10.2311C83.6194 10.8676 83.7885 10.9366 84.4491 10.8293C84.8597 10.7623 85.4298 10.4732 85.7155 10.1864C86.2308 9.66993 86.2352 9.63605 86.2352 6.30744C86.2352 2.97882 86.2308 2.94494 85.7155 2.42844C85.4298 2.14172 84.8597 1.85255 84.4491 1.78561C83.7885 1.67827 83.6194 1.74725 82.9846 2.38375ZM65.9865 11.5113V17.2253H60.2883H54.5902V11.5113V5.79726H60.2883H65.9865V11.5113ZM40.0168 7.0176C39.7805 7.11331 39.3912 7.44146 39.1519 7.74655C38.7455 8.26469 38.7168 8.53386 38.7168 11.8417V15.3821L39.2764 16.0047C39.6281 16.3957 40.1094 16.6708 40.5713 16.7443C41.1918 16.8433 41.4141 16.7651 41.9959 16.2439L42.6851 15.6262V11.8174V8.00858L42.0205 7.4131C41.3475 6.81006 40.7972 6.7015 40.0168 7.0176ZM8.19104 15.8537C7.91122 15.9939 7.52212 16.4288 7.32655 16.82C7.00908 17.4544 6.97062 18.2636 6.97041 24.2992L6.97001 31.0671L4.6126 31.1356L2.255 31.2042L1.66178 31.8707L1.06836 32.5372V38.6255V44.7137L1.65852 45.5096C1.98311 45.9474 10.5456 54.6161 20.6862 64.7736L39.1238 83.2417V93.8952C39.1238 101.72 39.1883 104.691 39.367 105.084C39.6269 105.656 40.4826 106.201 41.1214 106.201C41.3359 106.201 43.4237 105.521 45.7613 104.69C52.5138 102.289 52.2698 102.398 52.6372 101.622C52.8158 101.244 52.9622 100.792 52.9622 100.618C52.9622 99.6633 51.8777 98.6366 50.8958 98.6624C50.6332 98.6693 48.8157 99.2517 46.857 99.9566L43.2957 101.239L43.189 91.3221C43.1304 85.8683 43.0618 81.3622 43.0364 81.3089C43.0112 81.2556 35.139 73.335 25.5427 63.7077L8.09478 46.2035H50.9285H93.7621L88.3474 51.6624C85.3693 54.6647 82.7828 57.3484 82.5998 57.626C82.0617 58.4414 82.1792 59.2169 82.9588 59.9987C83.8318 60.8742 84.5679 60.903 85.6451 60.1034C86.0816 59.7795 89.6136 56.3128 93.4941 52.3997C99.4067 46.4373 100.57 45.1694 100.679 44.5709C100.75 44.1781 100.78 41.2547 100.746 38.0747L100.684 32.2925L100.019 31.6974L99.3548 31.1022H95.7029H92.051L91.9922 24.3508L91.9334 17.5995L91.2596 16.9961L90.586 16.3927L84.1709 16.4518L77.756 16.511L77.1624 17.1775L76.5687 17.844V24.4731V31.1022H73.3318H70.0946L70.0248 29.0443C69.9552 26.9983 69.951 26.9832 69.2656 26.3693C68.6837 25.8483 68.4613 25.7702 67.841 25.8691C67.3791 25.9426 66.8978 26.2177 66.5461 26.6087C66.0186 27.1956 65.9865 27.3423 65.9865 29.1667V31.1022H58.0644H50.1424L50.0769 28.0452C50.0119 25.0147 50.0064 24.9833 49.4472 24.4229L48.8831 23.8576L40.6023 23.7999C34.6097 23.758 32.1621 23.8082 31.7447 23.9817C30.7579 24.3915 30.5766 25.0518 30.5766 28.2349V31.1022H28.5415H26.5065V24.0482C26.5065 19.6005 26.4292 16.8494 26.2969 16.6018C25.7779 15.6292 25.4314 15.5925 16.7993 15.5958C10.7349 15.598 8.572 15.6627 8.19104 15.8537ZM31.2028 16.2206C30.3662 17.0596 30.3533 17.9887 31.1664 18.9009C32.6998 20.622 35.3343 18.8421 34.3457 16.7528C33.7321 15.4562 32.2203 15.2003 31.2028 16.2206ZM22.4364 25.3881V31.1022H16.7382H11.0401V25.3881V19.6741H16.7382H22.4364V25.3881ZM87.965 25.7963V31.1022H84.3019H80.6388V25.7963V20.4904H84.3019H87.965V25.7963ZM46.043 29.4696V31.1022H40.3448H34.6467V29.4696V27.837H40.3448H46.043V29.4696ZM96.7157 38.6528V42.122H50.9271H5.13846V38.6528V35.1836H50.9271H96.7157V38.6528ZM33.1204 52.144C31.1189 53.2982 32.0935 56.3332 34.3302 55.9124C36.525 55.4995 36.4424 52.324 34.2287 52.0091C33.8431 51.9542 33.3443 52.015 33.1204 52.144ZM44.3132 52.144C42.3117 53.2982 43.2863 56.3332 45.523 55.9124C47.7178 55.4995 47.6352 52.324 45.4215 52.0091C45.0358 51.9542 44.537 52.015 44.3132 52.144ZM55.506 52.144C53.5045 53.2982 54.4791 56.3332 56.7158 55.9124C58.9106 55.4995 58.828 52.324 56.6143 52.0091C56.2286 51.9542 55.7298 52.015 55.506 52.144ZM67.1058 52.1103C65.8929 52.6083 65.5076 54.339 66.3984 55.2898C67.6402 56.6152 69.8441 55.7636 69.8441 53.9582C69.8441 52.5299 68.4218 51.5701 67.1058 52.1103ZM39.5151 61.085C39.0748 61.5266 38.9203 61.8752 38.9203 62.4272C38.9203 64.5746 42.0702 65.1156 42.7747 63.089C43.4686 61.0925 41.0131 59.5828 39.5151 61.085ZM49.6033 60.9811C48.9616 61.6246 48.7848 62.389 49.1006 63.1535C49.436 63.9655 50.0392 64.3659 50.9271 64.3659C51.815 64.3659 52.4182 63.9655 52.7536 63.1535C53.289 61.8578 52.3504 60.4885 50.9271 60.4885C50.3184 60.4885 49.9625 60.6209 49.6033 60.9811ZM59.7391 60.8501C58.7104 61.6609 58.7336 63.3537 59.7826 64.043C61.0952 64.9054 62.9339 63.9626 62.9339 62.4272C62.9339 60.8744 60.9505 59.8955 59.7391 60.8501ZM76.6705 63.7349C75.3736 64.2916 75.0306 65.9774 76.0138 66.9631C76.433 67.3837 76.7678 67.5198 77.3828 67.5198C79.7493 67.5198 80.0236 64.0512 77.688 63.6618C77.3522 63.6057 76.8943 63.6385 76.6705 63.7349ZM44.3132 69.0819C42.3117 70.2362 43.2863 73.2711 45.523 72.8503C47.7178 72.4375 47.6352 69.2619 45.4215 68.9471C45.0358 68.8922 44.537 68.953 44.3132 69.0819ZM55.506 69.0819C53.5045 70.2362 54.4791 73.2711 56.7158 72.8503C58.9106 72.4375 58.828 69.2619 56.6143 68.9471C56.2286 68.8922 55.7298 68.953 55.506 69.0819ZM65.783 72.312C56.5978 74.259 50.6503 83.2866 52.5315 92.4261C54.4429 101.712 63.437 107.713 72.6008 105.816C81.8609 103.899 87.845 94.8803 85.9536 85.6909C84.037 76.3789 74.9694 70.3645 65.783 72.312ZM71.9769 76.3049C76.8233 77.3344 80.9341 81.4567 81.9608 86.3166C83.9075 95.5319 75.6979 103.764 66.5083 101.812C62.798 101.024 59.3494 98.3477 57.6837 94.9636C55.741 91.0168 55.741 87.1003 57.6837 83.1535C60.2468 77.9462 66.223 75.0827 71.9769 76.3049ZM68.4265 77.3773C68.0016 77.5897 67.596 78.0068 67.4169 78.4152C67.2118 78.8829 66.8151 79.2515 66.1576 79.5857C63.1675 81.105 61.9691 84.541 63.4056 87.4747C64.3814 89.4675 66.0479 90.5654 68.6579 90.9356C70.5191 91.1997 71.3604 91.7162 71.5829 92.7316C71.742 93.4583 71.2324 94.4307 70.5222 94.7552C69.8942 95.0421 68.5836 95.0387 67.9485 94.7485C67.4244 94.5091 66.9045 93.6399 66.701 92.6633C66.4342 91.3827 64.903 90.6833 63.7367 91.3094C63.217 91.5882 62.7304 92.5637 62.7304 93.3263C62.7304 95.156 64.4264 97.6314 66.2368 98.4442C66.7999 98.6968 67.1867 99.0491 67.3986 99.5017C67.5915 99.9139 68.016 100.327 68.4794 100.554C69.2194 100.917 69.2658 100.917 70.0057 100.554C70.4691 100.327 70.8936 99.9139 71.0865 99.5017C71.2984 99.0491 71.6852 98.6968 72.2483 98.4442C74.377 97.4883 75.8913 94.956 75.6926 92.6837C75.4301 89.6818 73.18 87.4911 69.8767 87.0211C68.1025 86.7688 67.5702 86.527 67.1245 85.7703C66.3436 84.4447 67.471 82.9364 69.2426 82.9364C70.5702 82.9364 71.3517 83.5855 71.681 84.9616C71.9402 86.0458 72.2766 86.4574 73.1859 86.8042C73.6564 86.9835 73.9142 86.9564 74.5066 86.6654C75.4716 86.1911 75.7991 85.5303 75.6719 84.3141C75.4615 82.3044 74.2099 80.5422 72.3051 79.5743C71.6219 79.2272 71.2591 78.8911 71.1128 78.4701C70.7273 77.3615 69.4754 76.8522 68.4265 77.3773Z"/>
</mask>
<path fill-rule="evenodd" clip-rule="evenodd" d="M15.9242 1.97683C14.9057 2.48721 14.682 3.35472 14.7465 6.54844C14.798 9.09832 14.8548 9.50912 15.2244 10.0048C16.0109 11.0597 17.3327 11.1378 18.282 10.1858C18.7607 9.70584 18.7733 9.60891 18.7733 6.40539C18.7733 4.54058 18.6825 2.9476 18.5637 2.72496C18.3238 2.27518 17.3402 1.71439 16.7993 1.71888C16.5978 1.72051 16.204 1.83663 15.9242 1.97683ZM31.6165 1.9905C30.6857 2.52721 30.5915 2.98943 30.5837 7.05699C30.5766 10.8246 30.5823 10.8746 31.0831 11.4715C31.6959 12.2014 32.4845 12.3863 33.3821 12.0102C34.5158 11.5351 34.6817 10.8025 34.6084 6.59395C34.5458 2.99555 34.5382 2.94168 34.0252 2.42783C33.401 1.80255 32.2917 1.60113 31.6165 1.9905ZM51.8201 1.91581C51.5838 2.01152 51.1945 2.33967 50.9552 2.64475C50.5268 3.19065 50.5201 3.3288 50.5201 11.5355V19.8717L51.1137 20.5382L51.7073 21.2047L60.1593 21.2622L68.6111 21.3196L69.2831 20.7178L69.9548 20.1157V11.5113V2.90678L69.2902 2.3113L68.6255 1.71582L60.4377 1.72868C55.9343 1.73582 52.0566 1.8201 51.8201 1.91581ZM82.9846 2.38375L82.2669 3.10351V6.30744V9.51136L82.9846 10.2311C83.6194 10.8676 83.7885 10.9366 84.4491 10.8293C84.8597 10.7623 85.4298 10.4732 85.7155 10.1864C86.2308 9.66993 86.2352 9.63605 86.2352 6.30744C86.2352 2.97882 86.2308 2.94494 85.7155 2.42844C85.4298 2.14172 84.8597 1.85255 84.4491 1.78561C83.7885 1.67827 83.6194 1.74725 82.9846 2.38375ZM65.9865 11.5113V17.2253H60.2883H54.5902V11.5113V5.79726H60.2883H65.9865V11.5113ZM40.0168 7.0176C39.7805 7.11331 39.3912 7.44146 39.1519 7.74655C38.7455 8.26469 38.7168 8.53386 38.7168 11.8417V15.3821L39.2764 16.0047C39.6281 16.3957 40.1094 16.6708 40.5713 16.7443C41.1918 16.8433 41.4141 16.7651 41.9959 16.2439L42.6851 15.6262V11.8174V8.00858L42.0205 7.4131C41.3475 6.81006 40.7972 6.7015 40.0168 7.0176ZM8.19104 15.8537C7.91122 15.9939 7.52212 16.4288 7.32655 16.82C7.00908 17.4544 6.97062 18.2636 6.97041 24.2992L6.97001 31.0671L4.6126 31.1356L2.255 31.2042L1.66178 31.8707L1.06836 32.5372V38.6255V44.7137L1.65852 45.5096C1.98311 45.9474 10.5456 54.6161 20.6862 64.7736L39.1238 83.2417V93.8952C39.1238 101.72 39.1883 104.691 39.367 105.084C39.6269 105.656 40.4826 106.201 41.1214 106.201C41.3359 106.201 43.4237 105.521 45.7613 104.69C52.5138 102.289 52.2698 102.398 52.6372 101.622C52.8158 101.244 52.9622 100.792 52.9622 100.618C52.9622 99.6633 51.8777 98.6366 50.8958 98.6624C50.6332 98.6693 48.8157 99.2517 46.857 99.9566L43.2957 101.239L43.189 91.3221C43.1304 85.8683 43.0618 81.3622 43.0364 81.3089C43.0112 81.2556 35.139 73.335 25.5427 63.7077L8.09478 46.2035H50.9285H93.7621L88.3474 51.6624C85.3693 54.6647 82.7828 57.3484 82.5998 57.626C82.0617 58.4414 82.1792 59.2169 82.9588 59.9987C83.8318 60.8742 84.5679 60.903 85.6451 60.1034C86.0816 59.7795 89.6136 56.3128 93.4941 52.3997C99.4067 46.4373 100.57 45.1694 100.679 44.5709C100.75 44.1781 100.78 41.2547 100.746 38.0747L100.684 32.2925L100.019 31.6974L99.3548 31.1022H95.7029H92.051L91.9922 24.3508L91.9334 17.5995L91.2596 16.9961L90.586 16.3927L84.1709 16.4518L77.756 16.511L77.1624 17.1775L76.5687 17.844V24.4731V31.1022H73.3318H70.0946L70.0248 29.0443C69.9552 26.9983 69.951 26.9832 69.2656 26.3693C68.6837 25.8483 68.4613 25.7702 67.841 25.8691C67.3791 25.9426 66.8978 26.2177 66.5461 26.6087C66.0186 27.1956 65.9865 27.3423 65.9865 29.1667V31.1022H58.0644H50.1424L50.0769 28.0452C50.0119 25.0147 50.0064 24.9833 49.4472 24.4229L48.8831 23.8576L40.6023 23.7999C34.6097 23.758 32.1621 23.8082 31.7447 23.9817C30.7579 24.3915 30.5766 25.0518 30.5766 28.2349V31.1022H28.5415H26.5065V24.0482C26.5065 19.6005 26.4292 16.8494 26.2969 16.6018C25.7779 15.6292 25.4314 15.5925 16.7993 15.5958C10.7349 15.598 8.572 15.6627 8.19104 15.8537ZM31.2028 16.2206C30.3662 17.0596 30.3533 17.9887 31.1664 18.9009C32.6998 20.622 35.3343 18.8421 34.3457 16.7528C33.7321 15.4562 32.2203 15.2003 31.2028 16.2206ZM22.4364 25.3881V31.1022H16.7382H11.0401V25.3881V19.6741H16.7382H22.4364V25.3881ZM87.965 25.7963V31.1022H84.3019H80.6388V25.7963V20.4904H84.3019H87.965V25.7963ZM46.043 29.4696V31.1022H40.3448H34.6467V29.4696V27.837H40.3448H46.043V29.4696ZM96.7157 38.6528V42.122H50.9271H5.13846V38.6528V35.1836H50.9271H96.7157V38.6528ZM33.1204 52.144C31.1189 53.2982 32.0935 56.3332 34.3302 55.9124C36.525 55.4995 36.4424 52.324 34.2287 52.0091C33.8431 51.9542 33.3443 52.015 33.1204 52.144ZM44.3132 52.144C42.3117 53.2982 43.2863 56.3332 45.523 55.9124C47.7178 55.4995 47.6352 52.324 45.4215 52.0091C45.0358 51.9542 44.537 52.015 44.3132 52.144ZM55.506 52.144C53.5045 53.2982 54.4791 56.3332 56.7158 55.9124C58.9106 55.4995 58.828 52.324 56.6143 52.0091C56.2286 51.9542 55.7298 52.015 55.506 52.144ZM67.1058 52.1103C65.8929 52.6083 65.5076 54.339 66.3984 55.2898C67.6402 56.6152 69.8441 55.7636 69.8441 53.9582C69.8441 52.5299 68.4218 51.5701 67.1058 52.1103ZM39.5151 61.085C39.0748 61.5266 38.9203 61.8752 38.9203 62.4272C38.9203 64.5746 42.0702 65.1156 42.7747 63.089C43.4686 61.0925 41.0131 59.5828 39.5151 61.085ZM49.6033 60.9811C48.9616 61.6246 48.7848 62.389 49.1006 63.1535C49.436 63.9655 50.0392 64.3659 50.9271 64.3659C51.815 64.3659 52.4182 63.9655 52.7536 63.1535C53.289 61.8578 52.3504 60.4885 50.9271 60.4885C50.3184 60.4885 49.9625 60.6209 49.6033 60.9811ZM59.7391 60.8501C58.7104 61.6609 58.7336 63.3537 59.7826 64.043C61.0952 64.9054 62.9339 63.9626 62.9339 62.4272C62.9339 60.8744 60.9505 59.8955 59.7391 60.8501ZM76.6705 63.7349C75.3736 64.2916 75.0306 65.9774 76.0138 66.9631C76.433 67.3837 76.7678 67.5198 77.3828 67.5198C79.7493 67.5198 80.0236 64.0512 77.688 63.6618C77.3522 63.6057 76.8943 63.6385 76.6705 63.7349ZM44.3132 69.0819C42.3117 70.2362 43.2863 73.2711 45.523 72.8503C47.7178 72.4375 47.6352 69.2619 45.4215 68.9471C45.0358 68.8922 44.537 68.953 44.3132 69.0819ZM55.506 69.0819C53.5045 70.2362 54.4791 73.2711 56.7158 72.8503C58.9106 72.4375 58.828 69.2619 56.6143 68.9471C56.2286 68.8922 55.7298 68.953 55.506 69.0819ZM65.783 72.312C56.5978 74.259 50.6503 83.2866 52.5315 92.4261C54.4429 101.712 63.437 107.713 72.6008 105.816C81.8609 103.899 87.845 94.8803 85.9536 85.6909C84.037 76.3789 74.9694 70.3645 65.783 72.312ZM71.9769 76.3049C76.8233 77.3344 80.9341 81.4567 81.9608 86.3166C83.9075 95.5319 75.6979 103.764 66.5083 101.812C62.798 101.024 59.3494 98.3477 57.6837 94.9636C55.741 91.0168 55.741 87.1003 57.6837 83.1535C60.2468 77.9462 66.223 75.0827 71.9769 76.3049ZM68.4265 77.3773C68.0016 77.5897 67.596 78.0068 67.4169 78.4152C67.2118 78.8829 66.8151 79.2515 66.1576 79.5857C63.1675 81.105 61.9691 84.541 63.4056 87.4747C64.3814 89.4675 66.0479 90.5654 68.6579 90.9356C70.5191 91.1997 71.3604 91.7162 71.5829 92.7316C71.742 93.4583 71.2324 94.4307 70.5222 94.7552C69.8942 95.0421 68.5836 95.0387 67.9485 94.7485C67.4244 94.5091 66.9045 93.6399 66.701 92.6633C66.4342 91.3827 64.903 90.6833 63.7367 91.3094C63.217 91.5882 62.7304 92.5637 62.7304 93.3263C62.7304 95.156 64.4264 97.6314 66.2368 98.4442C66.7999 98.6968 67.1867 99.0491 67.3986 99.5017C67.5915 99.9139 68.016 100.327 68.4794 100.554C69.2194 100.917 69.2658 100.917 70.0057 100.554C70.4691 100.327 70.8936 99.9139 71.0865 99.5017C71.2984 99.0491 71.6852 98.6968 72.2483 98.4442C74.377 97.4883 75.8913 94.956 75.6926 92.6837C75.4301 89.6818 73.18 87.4911 69.8767 87.0211C68.1025 86.7688 67.5702 86.527 67.1245 85.7703C66.3436 84.4447 67.471 82.9364 69.2426 82.9364C70.5702 82.9364 71.3517 83.5855 71.681 84.9616C71.9402 86.0458 72.2766 86.4574 73.1859 86.8042C73.6564 86.9835 73.9142 86.9564 74.5066 86.6654C75.4716 86.1911 75.7991 85.5303 75.6719 84.3141C75.4615 82.3044 74.2099 80.5422 72.3051 79.5743C71.6219 79.2272 71.2591 78.8911 71.1128 78.4701C70.7273 77.3615 69.4754 76.8522 68.4265 77.3773Z" fill="url(#paint0_linear_1035_380)"/>
<path fill-rule="evenodd" clip-rule="evenodd" d="M15.9242 1.97683C14.9057 2.48721 14.682 3.35472 14.7465 6.54844C14.798 9.09832 14.8548 9.50912 15.2244 10.0048C16.0109 11.0597 17.3327 11.1378 18.282 10.1858C18.7607 9.70584 18.7733 9.60891 18.7733 6.40539C18.7733 4.54058 18.6825 2.9476 18.5637 2.72496C18.3238 2.27518 17.3402 1.71439 16.7993 1.71888C16.5978 1.72051 16.204 1.83663 15.9242 1.97683ZM31.6165 1.9905C30.6857 2.52721 30.5915 2.98943 30.5837 7.05699C30.5766 10.8246 30.5823 10.8746 31.0831 11.4715C31.6959 12.2014 32.4845 12.3863 33.3821 12.0102C34.5158 11.5351 34.6817 10.8025 34.6084 6.59395C34.5458 2.99555 34.5382 2.94168 34.0252 2.42783C33.401 1.80255 32.2917 1.60113 31.6165 1.9905ZM51.8201 1.91581C51.5838 2.01152 51.1945 2.33967 50.9552 2.64475C50.5268 3.19065 50.5201 3.3288 50.5201 11.5355V19.8717L51.1137 20.5382L51.7073 21.2047L60.1593 21.2622L68.6111 21.3196L69.2831 20.7178L69.9548 20.1157V11.5113V2.90678L69.2902 2.3113L68.6255 1.71582L60.4377 1.72868C55.9343 1.73582 52.0566 1.8201 51.8201 1.91581ZM82.9846 2.38375L82.2669 3.10351V6.30744V9.51136L82.9846 10.2311C83.6194 10.8676 83.7885 10.9366 84.4491 10.8293C84.8597 10.7623 85.4298 10.4732 85.7155 10.1864C86.2308 9.66993 86.2352 9.63605 86.2352 6.30744C86.2352 2.97882 86.2308 2.94494 85.7155 2.42844C85.4298 2.14172 84.8597 1.85255 84.4491 1.78561C83.7885 1.67827 83.6194 1.74725 82.9846 2.38375ZM65.9865 11.5113V17.2253H60.2883H54.5902V11.5113V5.79726H60.2883H65.9865V11.5113ZM40.0168 7.0176C39.7805 7.11331 39.3912 7.44146 39.1519 7.74655C38.7455 8.26469 38.7168 8.53386 38.7168 11.8417V15.3821L39.2764 16.0047C39.6281 16.3957 40.1094 16.6708 40.5713 16.7443C41.1918 16.8433 41.4141 16.7651 41.9959 16.2439L42.6851 15.6262V11.8174V8.00858L42.0205 7.4131C41.3475 6.81006 40.7972 6.7015 40.0168 7.0176ZM8.19104 15.8537C7.91122 15.9939 7.52212 16.4288 7.32655 16.82C7.00908 17.4544 6.97062 18.2636 6.97041 24.2992L6.97001 31.0671L4.6126 31.1356L2.255 31.2042L1.66178 31.8707L1.06836 32.5372V38.6255V44.7137L1.65852 45.5096C1.98311 45.9474 10.5456 54.6161 20.6862 64.7736L39.1238 83.2417V93.8952C39.1238 101.72 39.1883 104.691 39.367 105.084C39.6269 105.656 40.4826 106.201 41.1214 106.201C41.3359 106.201 43.4237 105.521 45.7613 104.69C52.5138 102.289 52.2698 102.398 52.6372 101.622C52.8158 101.244 52.9622 100.792 52.9622 100.618C52.9622 99.6633 51.8777 98.6366 50.8958 98.6624C50.6332 98.6693 48.8157 99.2517 46.857 99.9566L43.2957 101.239L43.189 91.3221C43.1304 85.8683 43.0618 81.3622 43.0364 81.3089C43.0112 81.2556 35.139 73.335 25.5427 63.7077L8.09478 46.2035H50.9285H93.7621L88.3474 51.6624C85.3693 54.6647 82.7828 57.3484 82.5998 57.626C82.0617 58.4414 82.1792 59.2169 82.9588 59.9987C83.8318 60.8742 84.5679 60.903 85.6451 60.1034C86.0816 59.7795 89.6136 56.3128 93.4941 52.3997C99.4067 46.4373 100.57 45.1694 100.679 44.5709C100.75 44.1781 100.78 41.2547 100.746 38.0747L100.684 32.2925L100.019 31.6974L99.3548 31.1022H95.7029H92.051L91.9922 24.3508L91.9334 17.5995L91.2596 16.9961L90.586 16.3927L84.1709 16.4518L77.756 16.511L77.1624 17.1775L76.5687 17.844V24.4731V31.1022H73.3318H70.0946L70.0248 29.0443C69.9552 26.9983 69.951 26.9832 69.2656 26.3693C68.6837 25.8483 68.4613 25.7702 67.841 25.8691C67.3791 25.9426 66.8978 26.2177 66.5461 26.6087C66.0186 27.1956 65.9865 27.3423 65.9865 29.1667V31.1022H58.0644H50.1424L50.0769 28.0452C50.0119 25.0147 50.0064 24.9833 49.4472 24.4229L48.8831 23.8576L40.6023 23.7999C34.6097 23.758 32.1621 23.8082 31.7447 23.9817C30.7579 24.3915 30.5766 25.0518 30.5766 28.2349V31.1022H28.5415H26.5065V24.0482C26.5065 19.6005 26.4292 16.8494 26.2969 16.6018C25.7779 15.6292 25.4314 15.5925 16.7993 15.5958C10.7349 15.598 8.572 15.6627 8.19104 15.8537ZM31.2028 16.2206C30.3662 17.0596 30.3533 17.9887 31.1664 18.9009C32.6998 20.622 35.3343 18.8421 34.3457 16.7528C33.7321 15.4562 32.2203 15.2003 31.2028 16.2206ZM22.4364 25.3881V31.1022H16.7382H11.0401V25.3881V19.6741H16.7382H22.4364V25.3881ZM87.965 25.7963V31.1022H84.3019H80.6388V25.7963V20.4904H84.3019H87.965V25.7963ZM46.043 29.4696V31.1022H40.3448H34.6467V29.4696V27.837H40.3448H46.043V29.4696ZM96.7157 38.6528V42.122H50.9271H5.13846V38.6528V35.1836H50.9271H96.7157V38.6528ZM33.1204 52.144C31.1189 53.2982 32.0935 56.3332 34.3302 55.9124C36.525 55.4995 36.4424 52.324 34.2287 52.0091C33.8431 51.9542 33.3443 52.015 33.1204 52.144ZM44.3132 52.144C42.3117 53.2982 43.2863 56.3332 45.523 55.9124C47.7178 55.4995 47.6352 52.324 45.4215 52.0091C45.0358 51.9542 44.537 52.015 44.3132 52.144ZM55.506 52.144C53.5045 53.2982 54.4791 56.3332 56.7158 55.9124C58.9106 55.4995 58.828 52.324 56.6143 52.0091C56.2286 51.9542 55.7298 52.015 55.506 52.144ZM67.1058 52.1103C65.8929 52.6083 65.5076 54.339 66.3984 55.2898C67.6402 56.6152 69.8441 55.7636 69.8441 53.9582C69.8441 52.5299 68.4218 51.5701 67.1058 52.1103ZM39.5151 61.085C39.0748 61.5266 38.9203 61.8752 38.9203 62.4272C38.9203 64.5746 42.0702 65.1156 42.7747 63.089C43.4686 61.0925 41.0131 59.5828 39.5151 61.085ZM49.6033 60.9811C48.9616 61.6246 48.7848 62.389 49.1006 63.1535C49.436 63.9655 50.0392 64.3659 50.9271 64.3659C51.815 64.3659 52.4182 63.9655 52.7536 63.1535C53.289 61.8578 52.3504 60.4885 50.9271 60.4885C50.3184 60.4885 49.9625 60.6209 49.6033 60.9811ZM59.7391 60.8501C58.7104 61.6609 58.7336 63.3537 59.7826 64.043C61.0952 64.9054 62.9339 63.9626 62.9339 62.4272C62.9339 60.8744 60.9505 59.8955 59.7391 60.8501ZM76.6705 63.7349C75.3736 64.2916 75.0306 65.9774 76.0138 66.9631C76.433 67.3837 76.7678 67.5198 77.3828 67.5198C79.7493 67.5198 80.0236 64.0512 77.688 63.6618C77.3522 63.6057 76.8943 63.6385 76.6705 63.7349ZM44.3132 69.0819C42.3117 70.2362 43.2863 73.2711 45.523 72.8503C47.7178 72.4375 47.6352 69.2619 45.4215 68.9471C45.0358 68.8922 44.537 68.953 44.3132 69.0819ZM55.506 69.0819C53.5045 70.2362 54.4791 73.2711 56.7158 72.8503C58.9106 72.4375 58.828 69.2619 56.6143 68.9471C56.2286 68.8922 55.7298 68.953 55.506 69.0819ZM65.783 72.312C56.5978 74.259 50.6503 83.2866 52.5315 92.4261C54.4429 101.712 63.437 107.713 72.6008 105.816C81.8609 103.899 87.845 94.8803 85.9536 85.6909C84.037 76.3789 74.9694 70.3645 65.783 72.312ZM71.9769 76.3049C76.8233 77.3344 80.9341 81.4567 81.9608 86.3166C83.9075 95.5319 75.6979 103.764 66.5083 101.812C62.798 101.024 59.3494 98.3477 57.6837 94.9636C55.741 91.0168 55.741 87.1003 57.6837 83.1535C60.2468 77.9462 66.223 75.0827 71.9769 76.3049ZM68.4265 77.3773C68.0016 77.5897 67.596 78.0068 67.4169 78.4152C67.2118 78.8829 66.8151 79.2515 66.1576 79.5857C63.1675 81.105 61.9691 84.541 63.4056 87.4747C64.3814 89.4675 66.0479 90.5654 68.6579 90.9356C70.5191 91.1997 71.3604 91.7162 71.5829 92.7316C71.742 93.4583 71.2324 94.4307 70.5222 94.7552C69.8942 95.0421 68.5836 95.0387 67.9485 94.7485C67.4244 94.5091 66.9045 93.6399 66.701 92.6633C66.4342 91.3827 64.903 90.6833 63.7367 91.3094C63.217 91.5882 62.7304 92.5637 62.7304 93.3263C62.7304 95.156 64.4264 97.6314 66.2368 98.4442C66.7999 98.6968 67.1867 99.0491 67.3986 99.5017C67.5915 99.9139 68.016 100.327 68.4794 100.554C69.2194 100.917 69.2658 100.917 70.0057 100.554C70.4691 100.327 70.8936 99.9139 71.0865 99.5017C71.2984 99.0491 71.6852 98.6968 72.2483 98.4442C74.377 97.4883 75.8913 94.956 75.6926 92.6837C75.4301 89.6818 73.18 87.4911 69.8767 87.0211C68.1025 86.7688 67.5702 86.527 67.1245 85.7703C66.3436 84.4447 67.471 82.9364 69.2426 82.9364C70.5702 82.9364 71.3517 83.5855 71.681 84.9616C71.9402 86.0458 72.2766 86.4574 73.1859 86.8042C73.6564 86.9835 73.9142 86.9564 74.5066 86.6654C75.4716 86.1911 75.7991 85.5303 75.6719 84.3141C75.4615 82.3044 74.2099 80.5422 72.3051 79.5743C71.6219 79.2272 71.2591 78.8911 71.1128 78.4701C70.7273 77.3615 69.4754 76.8522 68.4265 77.3773Z" stroke="url(#paint1_linear_1035_380)" stroke-width="1.91715" mask="url(#path-1-outside-1_1035_380)"/>
</g>
<defs>
<linearGradient id="paint0_linear_1035_380" x1="4.52303" y1="32.2727" x2="96.2851" y2="68.3359" gradientUnits="userSpaceOnUse">
<stop stop-color="white"/>
<stop offset="0.435584" stop-color="white" stop-opacity="0.26"/>
<stop offset="1" stop-color="white" stop-opacity="0"/>
</linearGradient>
<linearGradient id="paint1_linear_1035_380" x1="6.0036" y1="1.71582" x2="89.8352" y2="56.0337" gradientUnits="userSpaceOnUse">
<stop stop-color="white"/>
<stop offset="0.485386" stop-color="white" stop-opacity="0.32"/>
<stop offset="1" stop-color="white" stop-opacity="0"/>
</linearGradient>
</defs>
</svg>
