<svg width="51" height="69" viewBox="0 0 51 69" fill="none" xmlns="http://www.w3.org/2000/svg">
<path fill-rule="evenodd" clip-rule="evenodd" d="M18.5054 0.801925C17.6189 1.01509 16.3338 1.77309 15.7087 2.45119C14.7764 3.46266 14.2785 4.69169 14.1928 6.19293L14.1207 7.45943L11.4083 7.46184C8.18872 7.46482 7.23857 7.62902 5.51196 8.4814C3.16615 9.63919 1.27861 12.0737 0.747255 14.6264C0.571273 15.4721 0.540619 18.9654 0.540619 38.1143C0.540619 63.1645 0.482572 61.6585 1.5281 63.7365C2.78538 66.2353 5.05299 67.992 7.76268 68.5664C9.18033 68.8668 41.8773 68.8587 43.3247 68.5576C46.3411 67.9297 49.0522 65.4609 50.1052 62.3828L50.4208 61.4603L50.4588 38.5785C50.5013 12.9946 50.5626 14.629 49.4789 12.4315C48.331 10.1034 45.8718 8.20111 43.3247 7.67103C42.6593 7.53266 41.4359 7.46354 39.6191 7.46184L36.9067 7.45943L36.8346 6.19293C36.7039 3.90261 35.6217 2.23476 33.6263 1.24827L32.5541 0.718191L25.8052 0.693781C22.0151 0.680015 18.8148 0.727416 18.5054 0.801925ZM31.9775 5.53711L32.3259 5.88538V9.73016V13.5749L31.9775 13.9232L31.6292 14.2716H25.5137H19.3982L19.0499 13.9232L18.7015 13.5749V9.73016V5.88538L19.0499 5.53711L19.3982 5.1887H25.5137H31.6292L31.9775 5.53711ZM14.1928 13.2674C14.3235 15.5579 15.4057 17.2257 17.4015 18.2121L18.4739 18.7421H25.5063H32.5388L33.4868 18.293C34.7926 17.6743 35.6291 16.8613 36.2482 15.6084C36.6902 14.7141 36.7701 14.3954 36.8341 13.2745L36.9081 11.9762L39.7617 12.024L42.6151 12.0719L43.5094 12.5568C44.5027 13.0954 44.9304 13.5373 45.4968 14.6112L45.8793 15.336V38.1143V60.8926L45.4968 61.6174C44.9304 62.6913 44.5027 63.1332 43.5094 63.6718L42.6151 64.1568H25.5137H8.41225L7.51801 63.6718C6.52471 63.1332 6.09696 62.6913 5.53055 61.6174L5.14807 60.8926V38.1143V15.336L5.46839 14.693C5.95191 13.7224 6.5274 13.0998 7.35948 12.6469C8.42006 12.0696 8.67196 12.0317 11.5503 12.0154L14.1207 12.0009L14.1928 13.2674ZM15.5012 23.5527C14.5617 23.9652 14.021 25.0526 14.2222 26.125C14.3467 26.7882 15.055 27.5724 15.6989 27.7595C16.0494 27.8614 19.3363 27.8966 25.8227 27.8678C35.2683 27.8258 35.434 27.8202 35.8193 27.5324C36.5641 26.9764 36.7964 26.5228 36.7964 25.6253C36.7964 24.7278 36.5641 24.2742 35.8193 23.7182C35.4335 23.4299 35.2787 23.4251 25.6807 23.394C17.7945 23.3686 15.8515 23.3988 15.5012 23.5527ZM17.85 34.8653C17.6548 34.9418 16.7484 35.7475 15.8356 36.6558L14.1759 38.307L13.5421 37.7228C12.4888 36.7519 11.2509 36.7324 10.3114 37.6718C9.72701 38.2564 9.52775 38.9268 9.68457 39.7819C9.76419 40.2157 10.0883 40.6203 11.4389 41.9709C13.2211 43.753 13.5543 43.9328 14.6922 43.726C15.1445 43.6438 15.6437 43.21 18.0174 40.8363C21.0128 37.8408 21.1319 37.6619 20.9115 36.4863C20.6688 35.1936 19.1134 34.3699 17.85 34.8653ZM24.5841 37.1766C23.6443 37.5902 23.104 38.6772 23.3051 39.7494C23.4295 40.4124 24.1378 41.1967 24.7818 41.3843C25.1285 41.4855 27.7359 41.5214 32.635 41.4926C39.7864 41.4506 39.9788 41.4422 40.3609 41.1568C41.1055 40.6006 41.3379 40.1472 41.3379 39.2497C41.3379 38.3522 41.1055 37.8987 40.3609 37.3425C39.9781 37.0566 39.7969 37.0492 32.4929 37.0181C26.4944 36.9924 24.9314 37.0238 24.5841 37.1766ZM17.85 48.4897C17.6548 48.5662 16.7484 49.3719 15.8356 50.2802L14.1759 51.9314L13.5421 51.3471C12.4888 50.3763 11.2509 50.3568 10.3114 51.2962C9.72701 51.8808 9.52775 52.5512 9.68457 53.4063C9.76419 53.8401 10.0883 54.2447 11.4389 55.5953C13.2211 57.3774 13.5543 57.5572 14.6922 57.3504C15.1445 57.2682 15.6437 56.8344 18.0174 54.4607C21.0128 51.4652 21.1319 51.2863 20.9115 50.1107C20.6688 48.818 19.1134 47.9943 17.85 48.4897ZM24.5841 50.801C23.6443 51.2146 23.104 52.3016 23.3051 53.3738C23.4295 54.0368 24.1378 54.8211 24.7818 55.0087C25.1285 55.1099 27.7359 55.1458 32.635 55.117C39.7864 55.075 39.9788 55.0666 40.3609 54.7812C41.1055 54.225 41.3379 53.7716 41.3379 52.8741C41.3379 51.9766 41.1055 51.5231 40.3609 50.9669C39.9781 50.681 39.7969 50.6736 32.4929 50.6425C26.4944 50.6168 24.9314 50.6482 24.5841 50.801Z" fill="url(#paint0_linear_1035_253)"/>
<defs>
<linearGradient id="paint0_linear_1035_253" x1="2.71122" y1="25.1172" x2="49.2786" y2="39.8828" gradientUnits="userSpaceOnUse">
<stop stop-color="#948D73"/>
<stop offset="0.556085" stop-color="#958E74" stop-opacity="0.285417"/>
<stop offset="1" stop-color="#968F74" stop-opacity="0.1"/>
</linearGradient>
</defs>
</svg>
