<svg width="111" height="111" viewBox="0 0 111 111" fill="none" xmlns="http://www.w3.org/2000/svg">
<g opacity="0.09">
<mask id="path-1-outside-1_1035_373" maskUnits="userSpaceOnUse" x="-0.0351562" y="0.71582" width="111" height="110" fill="black">
<rect fill="white" x="-0.0351562" y="0.71582" width="111" height="110"/>
<path fill-rule="evenodd" clip-rule="evenodd" d="M53.4875 1.79818C50.3502 2.12395 47.4478 3.50947 45.1245 5.79096C43.3523 7.53093 42.305 9.1688 41.4919 11.4722C40.8311 13.3441 40.8079 13.5479 40.7223 18.2134C40.6233 23.6204 40.8839 26.5959 41.7139 29.5307C42.423 32.039 43.8059 34.8017 45.0844 36.2647L46.0956 37.4221V39.7892C46.0956 41.707 46.0207 42.2489 45.7007 42.6443C45.4233 42.9872 42.9533 43.9595 37.4009 45.9123C28.2607 49.1266 27.7793 49.3254 25.9281 50.6486C21.6144 53.732 19.0149 58.7509 19.0149 63.9962C19.0149 65.8457 19.5403 66.6048 20.8203 66.6048C22.1583 66.6048 22.5279 65.9711 22.6913 63.3982C22.9102 59.9478 24.1591 57.1756 26.5433 54.8474C28.5976 52.841 29.0171 52.6605 42.7498 47.8717L45.8358 46.7954L46.9261 48.1719C48.2097 49.7928 50.2193 51.2129 52.04 51.7863C53.0486 52.1039 53.8662 52.1773 55.6564 52.1109C57.736 52.0339 58.126 51.948 59.5193 51.2615C61.0152 50.5243 62.7556 49.0234 63.9334 47.4546L64.4879 46.7161L72.2783 49.5021C76.5632 51.0342 80.6226 52.5865 81.2994 52.9513C84.8569 54.8693 87.2885 58.9274 87.5597 63.3982C87.7157 65.9711 88.0842 66.6048 89.4247 66.6048C90.1035 66.6048 90.4032 66.4683 90.7884 65.9835C91.2423 65.4128 91.2723 65.1876 91.1572 63.2161C90.9976 60.485 90.5657 58.842 89.3753 56.4387C88.13 53.925 85.1509 50.8521 82.7674 49.6232C81.8985 49.1749 77.7046 47.5771 73.4475 46.0723C65.1633 43.1438 64.5059 42.8738 64.2895 42.309C64.2126 42.108 64.1494 40.9 64.1494 39.6247C64.1494 37.5353 64.1975 37.2637 64.6353 36.8758C65.4675 36.1387 67.2404 33.2468 67.8405 31.648C69.2536 27.8823 69.6427 24.7769 69.5229 18.2227C69.4371 13.5468 69.4141 13.3446 68.7531 11.4722C66.4661 4.99484 60.3053 1.09062 53.4875 1.79818ZM57.179 5.49592C58.8939 5.71166 61.3316 7.02963 62.8062 8.53805C64.2002 9.96424 65.3816 12.1084 65.6298 13.6626C65.7733 14.5602 65.7598 14.5837 64.8966 14.9293C62.2296 15.9975 57.8933 16.0243 54.3728 14.9942C52.1524 14.3445 50.9812 13.805 49.4807 12.7414C48.1431 11.7932 47.7879 11.6764 47.0712 11.9491C46.2664 12.2554 45.8857 12.8026 45.8771 13.6656C45.8713 14.2353 46.0784 14.5643 46.8963 15.2852C48.3085 16.5295 51.2116 17.9202 53.893 18.6372C55.8413 19.158 56.6002 19.2397 59.6359 19.2556C62.3659 19.27 63.4139 19.1876 64.4098 18.8796C65.1116 18.6628 65.7614 18.4854 65.8537 18.4854C66.2028 18.4854 65.762 25.7853 65.2999 27.6606C63.8666 33.4736 60.4793 37.0697 55.8345 37.709C54.6619 37.8703 54.2214 38.042 53.8249 38.492C53.186 39.2176 53.1799 39.9374 53.8059 40.7342C54.2789 41.3362 54.3502 41.3527 56.0062 41.2481C56.9475 41.1887 58.3234 40.9226 59.0639 40.6567C59.8043 40.3906 60.4271 40.173 60.4481 40.173C60.4689 40.173 60.5273 40.8085 60.5779 41.585C60.6284 42.3617 60.8428 43.3417 61.0543 43.7632C61.4228 44.4977 61.4199 44.5598 60.9837 45.2662C60.354 46.2862 58.8635 47.5906 57.7486 48.0976C56.3438 48.736 53.7642 48.6858 52.3016 47.9918C51.233 47.4847 49.967 46.3388 49.2022 45.1871C48.8883 44.7141 48.8955 44.5634 49.2814 43.5468C49.6238 42.6452 49.7063 41.8152 49.7063 39.2813V36.1355L48.4636 34.7091C46.8263 32.83 45.7467 30.7229 45.0403 28.0277C44.5285 26.0752 44.4507 25.249 44.348 20.6854C44.2683 17.1349 44.3173 15.1067 44.5064 14.1339C45.1663 10.7364 47.3839 7.84247 50.4416 6.38895C52.0667 5.61633 54.2812 5.14575 55.5738 5.29824C55.8841 5.33484 56.6065 5.42385 57.179 5.49592ZM20.7074 10.799C16.3389 11.7643 13.2131 14.705 12.1301 18.8679C11.7209 20.4405 11.6638 27.3346 12.045 29.1487C12.393 30.8049 13.2232 32.4922 14.4044 33.9439L15.4041 35.1724V37.2843V39.3963L12.3011 40.7242C10.5946 41.4546 8.4981 42.412 7.64235 42.8521C4.57862 44.4272 2.00866 47.7991 1.29215 51.1847C1.09221 52.129 0.96741 54.0528 0.964927 56.2291C0.958383 62.1032 1.32217 62.6255 7.31219 65.3437C9.46646 66.3215 11.5246 67.1237 11.8854 67.1266C12.6683 67.1329 13.5988 66.1749 13.5988 65.3622C13.5988 64.4186 12.6757 63.7734 8.88942 62.0698C6.55258 61.0182 5.07262 60.2198 4.86094 59.8963C4.58968 59.4822 4.54138 58.6648 4.6066 55.5963C4.68536 51.8906 4.70274 51.7745 5.40007 50.2984C6.30276 48.3879 7.59834 46.977 9.2541 46.1019C9.96813 45.7244 12.2786 44.682 14.3886 43.7856C16.4986 42.8889 18.4026 41.9523 18.62 41.704C18.9628 41.3121 19.0149 40.7482 19.0149 37.4352V33.6177L17.7509 32.2412C15.6298 29.9317 15.517 29.5276 15.517 24.2462V19.7279L16.1802 18.4167C16.9107 16.9723 18.0292 15.8425 19.5125 15.0507C20.3272 14.6158 20.8237 14.5333 22.6256 14.5333C24.4024 14.5333 24.9286 14.6183 25.6984 15.0301C27.7281 16.1156 28.8542 17.4794 29.4897 19.6213C29.9645 21.2221 29.9726 21.1964 28.9919 21.1964C27.1445 21.1964 24.0758 20.0329 22.1869 18.6165C21.2012 17.8773 20.2886 17.8676 19.5689 18.5882C18.77 19.3877 18.8283 20.3887 19.7219 21.2244C21.4896 22.8776 25.3543 24.4579 28.2991 24.7319L29.9002 24.8808L29.8025 26.7446C29.6192 30.2383 27.8299 32.7075 24.6364 33.873C22.6159 34.6104 22.0926 35.6871 23.1542 36.9224C23.701 37.5588 24.3994 37.6891 25.6199 37.3825L26.2364 37.2276V39.24C26.2364 40.8279 26.3197 41.3512 26.6313 41.7198C27.1987 42.3913 34.5157 45.4356 35.1678 45.2719C36.3143 44.9838 36.9186 43.6692 36.3626 42.6736C36.1215 42.2424 35.2428 41.749 32.9427 40.7529L29.8472 39.4128V37.2861V35.1593L30.7011 34.1881C31.8288 32.9056 32.6868 31.294 33.112 29.6602C33.5899 27.8235 33.596 20.6926 33.1212 18.8679C32.1817 15.2567 29.6007 12.454 26.1053 11.2497C24.5703 10.7208 22.0233 10.5082 20.7074 10.799ZM84.5727 11.1098C80.7013 12.3912 77.8317 15.5264 77.0364 19.3437C76.7126 20.8979 76.7141 27.6044 77.0387 29.1487C77.3867 30.8049 78.2169 32.4922 79.3981 33.9439L80.3978 35.1724V37.3005V39.4286L77.5622 40.6309C74.5156 41.9229 73.9106 42.473 74.2123 43.6762C74.3678 44.2966 75.2967 45.1431 75.8221 45.1431C76.4801 45.1431 83.23 42.1805 83.6136 41.7232C83.9555 41.3157 84.0086 40.7407 84.0086 37.4352V33.6177L82.7446 32.2412C80.6235 29.9317 80.5106 29.5276 80.5106 24.2462C80.5106 19.7548 80.5145 19.7203 81.1425 18.4396C83.244 14.1556 88.8553 13.0032 92.3404 16.14C92.9903 16.7249 93.7305 17.6945 94.0961 18.4396C94.7226 19.7171 94.728 19.7652 94.728 24.138V28.548L93.9756 30.0779C93.0806 31.8981 91.6729 33.1273 89.6301 33.873C87.6096 34.6104 87.0863 35.6871 88.1479 36.9224C88.6947 37.5588 89.3931 37.6891 90.6135 37.3825L91.2301 37.2276V39.24C91.2301 40.834 91.3122 41.3464 91.625 41.704C91.8421 41.9523 93.7463 42.8889 95.8564 43.7856C97.9664 44.682 100.277 45.7244 100.991 46.1019C102.647 46.977 103.942 48.3879 104.845 50.2984C105.542 51.7745 105.56 51.8906 105.638 55.5963C105.704 58.6648 105.655 59.4822 105.384 59.8963C105.172 60.2198 103.692 61.0182 101.356 62.0698C97.5692 63.7734 96.6462 64.4186 96.6462 65.3622C96.6462 66.1728 97.5764 67.1323 98.3595 67.1296C98.7204 67.1282 100.742 66.3429 102.852 65.3846C108.852 62.6597 109.284 62.0515 109.284 56.3271C109.284 54.4462 109.175 52.3038 109.043 51.5667C108.65 49.3817 107.242 46.7387 105.592 45.0871C104.006 43.4991 102.738 42.7758 97.9438 40.7242L94.8408 39.3963V37.2777V35.1593L95.6948 34.1881C96.8225 32.9056 97.6805 31.294 98.1057 29.6602C98.5229 28.0567 98.5872 21.1916 98.2022 19.3437C97.5182 16.06 95.2809 13.2298 92.2127 11.7666C90.537 10.9675 90.3046 10.9183 87.9578 10.8663C86.3623 10.8308 85.153 10.9178 84.5727 11.1098ZM17.91 68.5815C17.6473 68.7988 16.477 70.8067 15.3093 73.0433L13.1867 77.1097L8.59717 77.9155C6.07302 78.3588 3.78042 78.8447 3.50261 78.9952C2.90233 79.3205 2.62227 80.2435 2.90323 80.9712C3.01426 81.2586 4.55921 83.0216 6.33683 84.8888L9.56869 88.2838L8.88558 92.9308C8.16975 97.7999 8.18803 98.4295 9.05957 98.8964C9.91149 99.3528 10.63 99.1269 14.7725 97.1L18.9339 95.0639L23.1343 97.1C25.6253 98.3075 27.6164 99.1361 28.0267 99.1361C29.2525 99.1361 29.9774 97.8421 29.4793 96.5429C29.3144 96.113 19.6957 91.2292 19.0135 91.2292C18.7626 91.2292 17.2276 91.8961 15.6025 92.7112C13.9777 93.5265 12.5916 94.1367 12.5223 94.0673C12.453 93.9982 12.6166 92.4611 12.8854 90.6516C13.2605 88.1292 13.316 87.2464 13.1235 86.8671C12.9854 86.5948 11.8478 85.3334 10.5953 84.0639C9.34302 82.7943 8.36382 81.7151 8.41979 81.6657C8.47553 81.6162 9.89208 81.3489 11.5677 81.0717C13.2433 80.7945 14.8664 80.45 15.1746 80.3059C15.565 80.1236 16.2062 79.137 17.2896 77.0521C18.1447 75.4063 18.9079 74.0619 18.986 74.0642C19.0639 74.0667 19.8174 75.3887 20.6605 77.0022C21.5034 78.6154 22.4174 80.0752 22.6915 80.246C22.9655 80.4166 24.6116 80.7891 26.3492 81.0735C28.0869 81.358 29.5524 81.6259 29.6059 81.6691C29.6594 81.712 28.5676 82.8994 27.1799 84.3075C25.1085 86.4091 24.6567 86.9875 24.6567 87.5373C24.6567 88.8106 26.1218 89.7504 27.1836 89.1585C27.4808 88.9927 29.369 87.1698 31.3795 85.1072C35.4161 80.9669 35.7068 80.4751 34.7657 79.3797C34.2625 78.7941 33.9088 78.6967 29.4978 77.9309L24.7695 77.1097L22.5932 72.9448C21.3962 70.654 20.2342 68.6463 20.0112 68.483C19.4441 68.0678 18.476 68.1132 17.91 68.5815ZM90.4265 68.6018C90.1857 68.8307 89.0334 70.8485 87.8653 73.0862L85.742 77.1546L81.0299 77.9523C75.7309 78.8492 75.433 78.9834 75.433 80.4699C75.433 81.3589 75.5621 81.5175 79.4775 85.4368C83.4108 89.3742 83.5423 89.4816 84.2731 89.3401C85.2159 89.1576 85.8155 88.4523 85.809 87.5331C85.8047 86.9452 85.401 86.3988 83.4496 84.3389C82.1549 82.9721 81.0908 81.7931 81.0852 81.7185C81.0796 81.6442 82.4656 81.3535 84.1659 81.0722C85.8658 80.7912 87.4832 80.4579 87.7601 80.3314C88.0824 80.1846 88.8558 78.9782 89.9085 76.9809L91.5532 73.8597L92.3061 75.2588C92.7202 76.0282 93.4663 77.4359 93.9639 78.387C94.5987 79.6001 95.0496 80.1884 95.4754 80.3585C95.809 80.4918 97.4022 80.8185 99.0158 81.0848C100.629 81.351 101.988 81.6038 102.035 81.6465C102.082 81.6892 101.041 82.8598 99.7219 84.2478C96.9432 87.1716 97.0443 86.8063 97.7547 91.3422C97.9883 92.8332 98.1521 94.0825 98.1187 94.1182C98.0856 94.1541 96.7121 93.5186 95.067 92.7062C93.4216 91.8938 91.8335 91.2292 91.5379 91.2292C90.9013 91.2292 82.0926 95.5835 81.3569 96.2619C80.721 96.8479 80.7049 97.7621 81.317 98.5409C82.1091 99.5491 82.8795 99.365 87.4467 97.0765L91.5569 95.0166L95.7377 97.0973C100.383 99.409 101.06 99.5527 101.911 98.4069L102.369 97.7908L101.662 92.9891L100.956 88.1873L104.33 84.765C107.388 81.6639 107.704 81.2685 107.704 80.5503C107.704 78.9974 107.411 78.8605 102.136 77.9465L97.3639 77.1199L95.3689 73.292C94.2717 71.1867 93.1363 69.1766 92.8461 68.8253C92.2172 68.0637 91.101 67.9607 90.4265 68.6018ZM54.3769 73.2249C53.8644 73.4438 53.2496 74.4383 51.1373 78.4652C49.7034 81.1987 48.5053 83.4626 48.4748 83.4958C48.4442 83.5292 46.043 83.9625 43.1388 84.4588C40.2346 84.9552 37.6353 85.4569 37.3627 85.574C36.6036 85.8997 36.0897 86.8278 36.27 87.5471C36.3637 87.9205 37.9768 89.7303 40.394 92.174L44.3642 96.1873L43.5317 101.846C42.857 106.432 42.7502 107.599 42.9675 108.008C43.3268 108.683 43.8488 109.06 44.4358 109.069C44.7018 109.073 47.2271 107.939 50.0476 106.55L55.1753 104.024L60.2279 106.55C63.0068 107.939 65.4274 109.076 65.607 109.076C66.2326 109.076 67.0351 108.571 67.2865 108.019C67.4873 107.577 67.3684 106.299 66.7094 101.82L65.8794 96.1781L69.8494 92.1787C72.3239 89.686 73.8777 87.9447 73.974 87.5566C74.1451 86.8677 73.6949 85.9801 72.9802 85.5972C72.7482 85.473 70.1469 84.9662 67.1994 84.4713C64.2521 83.9763 61.8123 83.5407 61.7776 83.5032C61.743 83.466 60.5465 81.2084 59.1185 78.4871C57.6906 75.7655 56.3851 73.465 56.2174 73.3749C55.5452 73.0137 54.9794 72.9674 54.3769 73.2249ZM57.2264 82.6475C58.3216 84.7591 59.3929 86.5808 59.6073 86.6956C59.9397 86.8736 67.6218 88.2924 68.2535 88.2924C68.374 88.2924 67.1195 89.7224 65.4655 91.47C63.8116 93.2177 62.3758 94.7948 62.2754 94.9748C62.1723 95.1592 62.3596 97.1257 62.7044 99.4809C63.0411 101.779 63.2652 103.711 63.2022 103.774C63.1395 103.837 61.386 103.073 59.306 102.077C57.2257 101.081 55.3418 100.266 55.1196 100.266C54.8973 100.266 53.0273 101.093 50.9642 102.105C48.9011 103.117 47.1468 103.878 47.0655 103.797C46.9845 103.716 47.1957 101.771 47.5354 99.4755C47.8807 97.1398 48.0723 95.1599 47.9703 94.9798C47.8701 94.8029 46.4336 93.2258 44.7783 91.4752C43.123 89.7246 41.8802 88.2924 42.0168 88.2924C42.6708 88.2924 50.2881 86.8829 50.6332 86.6981C50.8501 86.582 51.9234 84.7591 53.0185 82.6475C54.1137 80.5356 55.0604 78.8079 55.1225 78.8079C55.1845 78.8079 56.1312 80.5356 57.2264 82.6475Z"/>
</mask>
<path fill-rule="evenodd" clip-rule="evenodd" d="M53.4875 1.79818C50.3502 2.12395 47.4478 3.50947 45.1245 5.79096C43.3523 7.53093 42.305 9.1688 41.4919 11.4722C40.8311 13.3441 40.8079 13.5479 40.7223 18.2134C40.6233 23.6204 40.8839 26.5959 41.7139 29.5307C42.423 32.039 43.8059 34.8017 45.0844 36.2647L46.0956 37.4221V39.7892C46.0956 41.707 46.0207 42.2489 45.7007 42.6443C45.4233 42.9872 42.9533 43.9595 37.4009 45.9123C28.2607 49.1266 27.7793 49.3254 25.9281 50.6486C21.6144 53.732 19.0149 58.7509 19.0149 63.9962C19.0149 65.8457 19.5403 66.6048 20.8203 66.6048C22.1583 66.6048 22.5279 65.9711 22.6913 63.3982C22.9102 59.9478 24.1591 57.1756 26.5433 54.8474C28.5976 52.841 29.0171 52.6605 42.7498 47.8717L45.8358 46.7954L46.9261 48.1719C48.2097 49.7928 50.2193 51.2129 52.04 51.7863C53.0486 52.1039 53.8662 52.1773 55.6564 52.1109C57.736 52.0339 58.126 51.948 59.5193 51.2615C61.0152 50.5243 62.7556 49.0234 63.9334 47.4546L64.4879 46.7161L72.2783 49.5021C76.5632 51.0342 80.6226 52.5865 81.2994 52.9513C84.8569 54.8693 87.2885 58.9274 87.5597 63.3982C87.7157 65.9711 88.0842 66.6048 89.4247 66.6048C90.1035 66.6048 90.4032 66.4683 90.7884 65.9835C91.2423 65.4128 91.2723 65.1876 91.1572 63.2161C90.9976 60.485 90.5657 58.842 89.3753 56.4387C88.13 53.925 85.1509 50.8521 82.7674 49.6232C81.8985 49.1749 77.7046 47.5771 73.4475 46.0723C65.1633 43.1438 64.5059 42.8738 64.2895 42.309C64.2126 42.108 64.1494 40.9 64.1494 39.6247C64.1494 37.5353 64.1975 37.2637 64.6353 36.8758C65.4675 36.1387 67.2404 33.2468 67.8405 31.648C69.2536 27.8823 69.6427 24.7769 69.5229 18.2227C69.4371 13.5468 69.4141 13.3446 68.7531 11.4722C66.4661 4.99484 60.3053 1.09062 53.4875 1.79818ZM57.179 5.49592C58.8939 5.71166 61.3316 7.02963 62.8062 8.53805C64.2002 9.96424 65.3816 12.1084 65.6298 13.6626C65.7733 14.5602 65.7598 14.5837 64.8966 14.9293C62.2296 15.9975 57.8933 16.0243 54.3728 14.9942C52.1524 14.3445 50.9812 13.805 49.4807 12.7414C48.1431 11.7932 47.7879 11.6764 47.0712 11.9491C46.2664 12.2554 45.8857 12.8026 45.8771 13.6656C45.8713 14.2353 46.0784 14.5643 46.8963 15.2852C48.3085 16.5295 51.2116 17.9202 53.893 18.6372C55.8413 19.158 56.6002 19.2397 59.6359 19.2556C62.3659 19.27 63.4139 19.1876 64.4098 18.8796C65.1116 18.6628 65.7614 18.4854 65.8537 18.4854C66.2028 18.4854 65.762 25.7853 65.2999 27.6606C63.8666 33.4736 60.4793 37.0697 55.8345 37.709C54.6619 37.8703 54.2214 38.042 53.8249 38.492C53.186 39.2176 53.1799 39.9374 53.8059 40.7342C54.2789 41.3362 54.3502 41.3527 56.0062 41.2481C56.9475 41.1887 58.3234 40.9226 59.0639 40.6567C59.8043 40.3906 60.4271 40.173 60.4481 40.173C60.4689 40.173 60.5273 40.8085 60.5779 41.585C60.6284 42.3617 60.8428 43.3417 61.0543 43.7632C61.4228 44.4977 61.4199 44.5598 60.9837 45.2662C60.354 46.2862 58.8635 47.5906 57.7486 48.0976C56.3438 48.736 53.7642 48.6858 52.3016 47.9918C51.233 47.4847 49.967 46.3388 49.2022 45.1871C48.8883 44.7141 48.8955 44.5634 49.2814 43.5468C49.6238 42.6452 49.7063 41.8152 49.7063 39.2813V36.1355L48.4636 34.7091C46.8263 32.83 45.7467 30.7229 45.0403 28.0277C44.5285 26.0752 44.4507 25.249 44.348 20.6854C44.2683 17.1349 44.3173 15.1067 44.5064 14.1339C45.1663 10.7364 47.3839 7.84247 50.4416 6.38895C52.0667 5.61633 54.2812 5.14575 55.5738 5.29824C55.8841 5.33484 56.6065 5.42385 57.179 5.49592ZM20.7074 10.799C16.3389 11.7643 13.2131 14.705 12.1301 18.8679C11.7209 20.4405 11.6638 27.3346 12.045 29.1487C12.393 30.8049 13.2232 32.4922 14.4044 33.9439L15.4041 35.1724V37.2843V39.3963L12.3011 40.7242C10.5946 41.4546 8.4981 42.412 7.64235 42.8521C4.57862 44.4272 2.00866 47.7991 1.29215 51.1847C1.09221 52.129 0.96741 54.0528 0.964927 56.2291C0.958383 62.1032 1.32217 62.6255 7.31219 65.3437C9.46646 66.3215 11.5246 67.1237 11.8854 67.1266C12.6683 67.1329 13.5988 66.1749 13.5988 65.3622C13.5988 64.4186 12.6757 63.7734 8.88942 62.0698C6.55258 61.0182 5.07262 60.2198 4.86094 59.8963C4.58968 59.4822 4.54138 58.6648 4.6066 55.5963C4.68536 51.8906 4.70274 51.7745 5.40007 50.2984C6.30276 48.3879 7.59834 46.977 9.2541 46.1019C9.96813 45.7244 12.2786 44.682 14.3886 43.7856C16.4986 42.8889 18.4026 41.9523 18.62 41.704C18.9628 41.3121 19.0149 40.7482 19.0149 37.4352V33.6177L17.7509 32.2412C15.6298 29.9317 15.517 29.5276 15.517 24.2462V19.7279L16.1802 18.4167C16.9107 16.9723 18.0292 15.8425 19.5125 15.0507C20.3272 14.6158 20.8237 14.5333 22.6256 14.5333C24.4024 14.5333 24.9286 14.6183 25.6984 15.0301C27.7281 16.1156 28.8542 17.4794 29.4897 19.6213C29.9645 21.2221 29.9726 21.1964 28.9919 21.1964C27.1445 21.1964 24.0758 20.0329 22.1869 18.6165C21.2012 17.8773 20.2886 17.8676 19.5689 18.5882C18.77 19.3877 18.8283 20.3887 19.7219 21.2244C21.4896 22.8776 25.3543 24.4579 28.2991 24.7319L29.9002 24.8808L29.8025 26.7446C29.6192 30.2383 27.8299 32.7075 24.6364 33.873C22.6159 34.6104 22.0926 35.6871 23.1542 36.9224C23.701 37.5588 24.3994 37.6891 25.6199 37.3825L26.2364 37.2276V39.24C26.2364 40.8279 26.3197 41.3512 26.6313 41.7198C27.1987 42.3913 34.5157 45.4356 35.1678 45.2719C36.3143 44.9838 36.9186 43.6692 36.3626 42.6736C36.1215 42.2424 35.2428 41.749 32.9427 40.7529L29.8472 39.4128V37.2861V35.1593L30.7011 34.1881C31.8288 32.9056 32.6868 31.294 33.112 29.6602C33.5899 27.8235 33.596 20.6926 33.1212 18.8679C32.1817 15.2567 29.6007 12.454 26.1053 11.2497C24.5703 10.7208 22.0233 10.5082 20.7074 10.799ZM84.5727 11.1098C80.7013 12.3912 77.8317 15.5264 77.0364 19.3437C76.7126 20.8979 76.7141 27.6044 77.0387 29.1487C77.3867 30.8049 78.2169 32.4922 79.3981 33.9439L80.3978 35.1724V37.3005V39.4286L77.5622 40.6309C74.5156 41.9229 73.9106 42.473 74.2123 43.6762C74.3678 44.2966 75.2967 45.1431 75.8221 45.1431C76.4801 45.1431 83.23 42.1805 83.6136 41.7232C83.9555 41.3157 84.0086 40.7407 84.0086 37.4352V33.6177L82.7446 32.2412C80.6235 29.9317 80.5106 29.5276 80.5106 24.2462C80.5106 19.7548 80.5145 19.7203 81.1425 18.4396C83.244 14.1556 88.8553 13.0032 92.3404 16.14C92.9903 16.7249 93.7305 17.6945 94.0961 18.4396C94.7226 19.7171 94.728 19.7652 94.728 24.138V28.548L93.9756 30.0779C93.0806 31.8981 91.6729 33.1273 89.6301 33.873C87.6096 34.6104 87.0863 35.6871 88.1479 36.9224C88.6947 37.5588 89.3931 37.6891 90.6135 37.3825L91.2301 37.2276V39.24C91.2301 40.834 91.3122 41.3464 91.625 41.704C91.8421 41.9523 93.7463 42.8889 95.8564 43.7856C97.9664 44.682 100.277 45.7244 100.991 46.1019C102.647 46.977 103.942 48.3879 104.845 50.2984C105.542 51.7745 105.56 51.8906 105.638 55.5963C105.704 58.6648 105.655 59.4822 105.384 59.8963C105.172 60.2198 103.692 61.0182 101.356 62.0698C97.5692 63.7734 96.6462 64.4186 96.6462 65.3622C96.6462 66.1728 97.5764 67.1323 98.3595 67.1296C98.7204 67.1282 100.742 66.3429 102.852 65.3846C108.852 62.6597 109.284 62.0515 109.284 56.3271C109.284 54.4462 109.175 52.3038 109.043 51.5667C108.65 49.3817 107.242 46.7387 105.592 45.0871C104.006 43.4991 102.738 42.7758 97.9438 40.7242L94.8408 39.3963V37.2777V35.1593L95.6948 34.1881C96.8225 32.9056 97.6805 31.294 98.1057 29.6602C98.5229 28.0567 98.5872 21.1916 98.2022 19.3437C97.5182 16.06 95.2809 13.2298 92.2127 11.7666C90.537 10.9675 90.3046 10.9183 87.9578 10.8663C86.3623 10.8308 85.153 10.9178 84.5727 11.1098ZM17.91 68.5815C17.6473 68.7988 16.477 70.8067 15.3093 73.0433L13.1867 77.1097L8.59717 77.9155C6.07302 78.3588 3.78042 78.8447 3.50261 78.9952C2.90233 79.3205 2.62227 80.2435 2.90323 80.9712C3.01426 81.2586 4.55921 83.0216 6.33683 84.8888L9.56869 88.2838L8.88558 92.9308C8.16975 97.7999 8.18803 98.4295 9.05957 98.8964C9.91149 99.3528 10.63 99.1269 14.7725 97.1L18.9339 95.0639L23.1343 97.1C25.6253 98.3075 27.6164 99.1361 28.0267 99.1361C29.2525 99.1361 29.9774 97.8421 29.4793 96.5429C29.3144 96.113 19.6957 91.2292 19.0135 91.2292C18.7626 91.2292 17.2276 91.8961 15.6025 92.7112C13.9777 93.5265 12.5916 94.1367 12.5223 94.0673C12.453 93.9982 12.6166 92.4611 12.8854 90.6516C13.2605 88.1292 13.316 87.2464 13.1235 86.8671C12.9854 86.5948 11.8478 85.3334 10.5953 84.0639C9.34302 82.7943 8.36382 81.7151 8.41979 81.6657C8.47553 81.6162 9.89208 81.3489 11.5677 81.0717C13.2433 80.7945 14.8664 80.45 15.1746 80.3059C15.565 80.1236 16.2062 79.137 17.2896 77.0521C18.1447 75.4063 18.9079 74.0619 18.986 74.0642C19.0639 74.0667 19.8174 75.3887 20.6605 77.0022C21.5034 78.6154 22.4174 80.0752 22.6915 80.246C22.9655 80.4166 24.6116 80.7891 26.3492 81.0735C28.0869 81.358 29.5524 81.6259 29.6059 81.6691C29.6594 81.712 28.5676 82.8994 27.1799 84.3075C25.1085 86.4091 24.6567 86.9875 24.6567 87.5373C24.6567 88.8106 26.1218 89.7504 27.1836 89.1585C27.4808 88.9927 29.369 87.1698 31.3795 85.1072C35.4161 80.9669 35.7068 80.4751 34.7657 79.3797C34.2625 78.7941 33.9088 78.6967 29.4978 77.9309L24.7695 77.1097L22.5932 72.9448C21.3962 70.654 20.2342 68.6463 20.0112 68.483C19.4441 68.0678 18.476 68.1132 17.91 68.5815ZM90.4265 68.6018C90.1857 68.8307 89.0334 70.8485 87.8653 73.0862L85.742 77.1546L81.0299 77.9523C75.7309 78.8492 75.433 78.9834 75.433 80.4699C75.433 81.3589 75.5621 81.5175 79.4775 85.4368C83.4108 89.3742 83.5423 89.4816 84.2731 89.3401C85.2159 89.1576 85.8155 88.4523 85.809 87.5331C85.8047 86.9452 85.401 86.3988 83.4496 84.3389C82.1549 82.9721 81.0908 81.7931 81.0852 81.7185C81.0796 81.6442 82.4656 81.3535 84.1659 81.0722C85.8658 80.7912 87.4832 80.4579 87.7601 80.3314C88.0824 80.1846 88.8558 78.9782 89.9085 76.9809L91.5532 73.8597L92.3061 75.2588C92.7202 76.0282 93.4663 77.4359 93.9639 78.387C94.5987 79.6001 95.0496 80.1884 95.4754 80.3585C95.809 80.4918 97.4022 80.8185 99.0158 81.0848C100.629 81.351 101.988 81.6038 102.035 81.6465C102.082 81.6892 101.041 82.8598 99.7219 84.2478C96.9432 87.1716 97.0443 86.8063 97.7547 91.3422C97.9883 92.8332 98.1521 94.0825 98.1187 94.1182C98.0856 94.1541 96.7121 93.5186 95.067 92.7062C93.4216 91.8938 91.8335 91.2292 91.5379 91.2292C90.9013 91.2292 82.0926 95.5835 81.3569 96.2619C80.721 96.8479 80.7049 97.7621 81.317 98.5409C82.1091 99.5491 82.8795 99.365 87.4467 97.0765L91.5569 95.0166L95.7377 97.0973C100.383 99.409 101.06 99.5527 101.911 98.4069L102.369 97.7908L101.662 92.9891L100.956 88.1873L104.33 84.765C107.388 81.6639 107.704 81.2685 107.704 80.5503C107.704 78.9974 107.411 78.8605 102.136 77.9465L97.3639 77.1199L95.3689 73.292C94.2717 71.1867 93.1363 69.1766 92.8461 68.8253C92.2172 68.0637 91.101 67.9607 90.4265 68.6018ZM54.3769 73.2249C53.8644 73.4438 53.2496 74.4383 51.1373 78.4652C49.7034 81.1987 48.5053 83.4626 48.4748 83.4958C48.4442 83.5292 46.043 83.9625 43.1388 84.4588C40.2346 84.9552 37.6353 85.4569 37.3627 85.574C36.6036 85.8997 36.0897 86.8278 36.27 87.5471C36.3637 87.9205 37.9768 89.7303 40.394 92.174L44.3642 96.1873L43.5317 101.846C42.857 106.432 42.7502 107.599 42.9675 108.008C43.3268 108.683 43.8488 109.06 44.4358 109.069C44.7018 109.073 47.2271 107.939 50.0476 106.55L55.1753 104.024L60.2279 106.55C63.0068 107.939 65.4274 109.076 65.607 109.076C66.2326 109.076 67.0351 108.571 67.2865 108.019C67.4873 107.577 67.3684 106.299 66.7094 101.82L65.8794 96.1781L69.8494 92.1787C72.3239 89.686 73.8777 87.9447 73.974 87.5566C74.1451 86.8677 73.6949 85.9801 72.9802 85.5972C72.7482 85.473 70.1469 84.9662 67.1994 84.4713C64.2521 83.9763 61.8123 83.5407 61.7776 83.5032C61.743 83.466 60.5465 81.2084 59.1185 78.4871C57.6906 75.7655 56.3851 73.465 56.2174 73.3749C55.5452 73.0137 54.9794 72.9674 54.3769 73.2249ZM57.2264 82.6475C58.3216 84.7591 59.3929 86.5808 59.6073 86.6956C59.9397 86.8736 67.6218 88.2924 68.2535 88.2924C68.374 88.2924 67.1195 89.7224 65.4655 91.47C63.8116 93.2177 62.3758 94.7948 62.2754 94.9748C62.1723 95.1592 62.3596 97.1257 62.7044 99.4809C63.0411 101.779 63.2652 103.711 63.2022 103.774C63.1395 103.837 61.386 103.073 59.306 102.077C57.2257 101.081 55.3418 100.266 55.1196 100.266C54.8973 100.266 53.0273 101.093 50.9642 102.105C48.9011 103.117 47.1468 103.878 47.0655 103.797C46.9845 103.716 47.1957 101.771 47.5354 99.4755C47.8807 97.1398 48.0723 95.1599 47.9703 94.9798C47.8701 94.8029 46.4336 93.2258 44.7783 91.4752C43.123 89.7246 41.8802 88.2924 42.0168 88.2924C42.6708 88.2924 50.2881 86.8829 50.6332 86.6981C50.8501 86.582 51.9234 84.7591 53.0185 82.6475C54.1137 80.5356 55.0604 78.8079 55.1225 78.8079C55.1845 78.8079 56.1312 80.5356 57.2264 82.6475Z" fill="url(#paint0_linear_1035_373)"/>
<path fill-rule="evenodd" clip-rule="evenodd" d="M53.4875 1.79818C50.3502 2.12395 47.4478 3.50947 45.1245 5.79096C43.3523 7.53093 42.305 9.1688 41.4919 11.4722C40.8311 13.3441 40.8079 13.5479 40.7223 18.2134C40.6233 23.6204 40.8839 26.5959 41.7139 29.5307C42.423 32.039 43.8059 34.8017 45.0844 36.2647L46.0956 37.4221V39.7892C46.0956 41.707 46.0207 42.2489 45.7007 42.6443C45.4233 42.9872 42.9533 43.9595 37.4009 45.9123C28.2607 49.1266 27.7793 49.3254 25.9281 50.6486C21.6144 53.732 19.0149 58.7509 19.0149 63.9962C19.0149 65.8457 19.5403 66.6048 20.8203 66.6048C22.1583 66.6048 22.5279 65.9711 22.6913 63.3982C22.9102 59.9478 24.1591 57.1756 26.5433 54.8474C28.5976 52.841 29.0171 52.6605 42.7498 47.8717L45.8358 46.7954L46.9261 48.1719C48.2097 49.7928 50.2193 51.2129 52.04 51.7863C53.0486 52.1039 53.8662 52.1773 55.6564 52.1109C57.736 52.0339 58.126 51.948 59.5193 51.2615C61.0152 50.5243 62.7556 49.0234 63.9334 47.4546L64.4879 46.7161L72.2783 49.5021C76.5632 51.0342 80.6226 52.5865 81.2994 52.9513C84.8569 54.8693 87.2885 58.9274 87.5597 63.3982C87.7157 65.9711 88.0842 66.6048 89.4247 66.6048C90.1035 66.6048 90.4032 66.4683 90.7884 65.9835C91.2423 65.4128 91.2723 65.1876 91.1572 63.2161C90.9976 60.485 90.5657 58.842 89.3753 56.4387C88.13 53.925 85.1509 50.8521 82.7674 49.6232C81.8985 49.1749 77.7046 47.5771 73.4475 46.0723C65.1633 43.1438 64.5059 42.8738 64.2895 42.309C64.2126 42.108 64.1494 40.9 64.1494 39.6247C64.1494 37.5353 64.1975 37.2637 64.6353 36.8758C65.4675 36.1387 67.2404 33.2468 67.8405 31.648C69.2536 27.8823 69.6427 24.7769 69.5229 18.2227C69.4371 13.5468 69.4141 13.3446 68.7531 11.4722C66.4661 4.99484 60.3053 1.09062 53.4875 1.79818ZM57.179 5.49592C58.8939 5.71166 61.3316 7.02963 62.8062 8.53805C64.2002 9.96424 65.3816 12.1084 65.6298 13.6626C65.7733 14.5602 65.7598 14.5837 64.8966 14.9293C62.2296 15.9975 57.8933 16.0243 54.3728 14.9942C52.1524 14.3445 50.9812 13.805 49.4807 12.7414C48.1431 11.7932 47.7879 11.6764 47.0712 11.9491C46.2664 12.2554 45.8857 12.8026 45.8771 13.6656C45.8713 14.2353 46.0784 14.5643 46.8963 15.2852C48.3085 16.5295 51.2116 17.9202 53.893 18.6372C55.8413 19.158 56.6002 19.2397 59.6359 19.2556C62.3659 19.27 63.4139 19.1876 64.4098 18.8796C65.1116 18.6628 65.7614 18.4854 65.8537 18.4854C66.2028 18.4854 65.762 25.7853 65.2999 27.6606C63.8666 33.4736 60.4793 37.0697 55.8345 37.709C54.6619 37.8703 54.2214 38.042 53.8249 38.492C53.186 39.2176 53.1799 39.9374 53.8059 40.7342C54.2789 41.3362 54.3502 41.3527 56.0062 41.2481C56.9475 41.1887 58.3234 40.9226 59.0639 40.6567C59.8043 40.3906 60.4271 40.173 60.4481 40.173C60.4689 40.173 60.5273 40.8085 60.5779 41.585C60.6284 42.3617 60.8428 43.3417 61.0543 43.7632C61.4228 44.4977 61.4199 44.5598 60.9837 45.2662C60.354 46.2862 58.8635 47.5906 57.7486 48.0976C56.3438 48.736 53.7642 48.6858 52.3016 47.9918C51.233 47.4847 49.967 46.3388 49.2022 45.1871C48.8883 44.7141 48.8955 44.5634 49.2814 43.5468C49.6238 42.6452 49.7063 41.8152 49.7063 39.2813V36.1355L48.4636 34.7091C46.8263 32.83 45.7467 30.7229 45.0403 28.0277C44.5285 26.0752 44.4507 25.249 44.348 20.6854C44.2683 17.1349 44.3173 15.1067 44.5064 14.1339C45.1663 10.7364 47.3839 7.84247 50.4416 6.38895C52.0667 5.61633 54.2812 5.14575 55.5738 5.29824C55.8841 5.33484 56.6065 5.42385 57.179 5.49592ZM20.7074 10.799C16.3389 11.7643 13.2131 14.705 12.1301 18.8679C11.7209 20.4405 11.6638 27.3346 12.045 29.1487C12.393 30.8049 13.2232 32.4922 14.4044 33.9439L15.4041 35.1724V37.2843V39.3963L12.3011 40.7242C10.5946 41.4546 8.4981 42.412 7.64235 42.8521C4.57862 44.4272 2.00866 47.7991 1.29215 51.1847C1.09221 52.129 0.96741 54.0528 0.964927 56.2291C0.958383 62.1032 1.32217 62.6255 7.31219 65.3437C9.46646 66.3215 11.5246 67.1237 11.8854 67.1266C12.6683 67.1329 13.5988 66.1749 13.5988 65.3622C13.5988 64.4186 12.6757 63.7734 8.88942 62.0698C6.55258 61.0182 5.07262 60.2198 4.86094 59.8963C4.58968 59.4822 4.54138 58.6648 4.6066 55.5963C4.68536 51.8906 4.70274 51.7745 5.40007 50.2984C6.30276 48.3879 7.59834 46.977 9.2541 46.1019C9.96813 45.7244 12.2786 44.682 14.3886 43.7856C16.4986 42.8889 18.4026 41.9523 18.62 41.704C18.9628 41.3121 19.0149 40.7482 19.0149 37.4352V33.6177L17.7509 32.2412C15.6298 29.9317 15.517 29.5276 15.517 24.2462V19.7279L16.1802 18.4167C16.9107 16.9723 18.0292 15.8425 19.5125 15.0507C20.3272 14.6158 20.8237 14.5333 22.6256 14.5333C24.4024 14.5333 24.9286 14.6183 25.6984 15.0301C27.7281 16.1156 28.8542 17.4794 29.4897 19.6213C29.9645 21.2221 29.9726 21.1964 28.9919 21.1964C27.1445 21.1964 24.0758 20.0329 22.1869 18.6165C21.2012 17.8773 20.2886 17.8676 19.5689 18.5882C18.77 19.3877 18.8283 20.3887 19.7219 21.2244C21.4896 22.8776 25.3543 24.4579 28.2991 24.7319L29.9002 24.8808L29.8025 26.7446C29.6192 30.2383 27.8299 32.7075 24.6364 33.873C22.6159 34.6104 22.0926 35.6871 23.1542 36.9224C23.701 37.5588 24.3994 37.6891 25.6199 37.3825L26.2364 37.2276V39.24C26.2364 40.8279 26.3197 41.3512 26.6313 41.7198C27.1987 42.3913 34.5157 45.4356 35.1678 45.2719C36.3143 44.9838 36.9186 43.6692 36.3626 42.6736C36.1215 42.2424 35.2428 41.749 32.9427 40.7529L29.8472 39.4128V37.2861V35.1593L30.7011 34.1881C31.8288 32.9056 32.6868 31.294 33.112 29.6602C33.5899 27.8235 33.596 20.6926 33.1212 18.8679C32.1817 15.2567 29.6007 12.454 26.1053 11.2497C24.5703 10.7208 22.0233 10.5082 20.7074 10.799ZM84.5727 11.1098C80.7013 12.3912 77.8317 15.5264 77.0364 19.3437C76.7126 20.8979 76.7141 27.6044 77.0387 29.1487C77.3867 30.8049 78.2169 32.4922 79.3981 33.9439L80.3978 35.1724V37.3005V39.4286L77.5622 40.6309C74.5156 41.9229 73.9106 42.473 74.2123 43.6762C74.3678 44.2966 75.2967 45.1431 75.8221 45.1431C76.4801 45.1431 83.23 42.1805 83.6136 41.7232C83.9555 41.3157 84.0086 40.7407 84.0086 37.4352V33.6177L82.7446 32.2412C80.6235 29.9317 80.5106 29.5276 80.5106 24.2462C80.5106 19.7548 80.5145 19.7203 81.1425 18.4396C83.244 14.1556 88.8553 13.0032 92.3404 16.14C92.9903 16.7249 93.7305 17.6945 94.0961 18.4396C94.7226 19.7171 94.728 19.7652 94.728 24.138V28.548L93.9756 30.0779C93.0806 31.8981 91.6729 33.1273 89.6301 33.873C87.6096 34.6104 87.0863 35.6871 88.1479 36.9224C88.6947 37.5588 89.3931 37.6891 90.6135 37.3825L91.2301 37.2276V39.24C91.2301 40.834 91.3122 41.3464 91.625 41.704C91.8421 41.9523 93.7463 42.8889 95.8564 43.7856C97.9664 44.682 100.277 45.7244 100.991 46.1019C102.647 46.977 103.942 48.3879 104.845 50.2984C105.542 51.7745 105.56 51.8906 105.638 55.5963C105.704 58.6648 105.655 59.4822 105.384 59.8963C105.172 60.2198 103.692 61.0182 101.356 62.0698C97.5692 63.7734 96.6462 64.4186 96.6462 65.3622C96.6462 66.1728 97.5764 67.1323 98.3595 67.1296C98.7204 67.1282 100.742 66.3429 102.852 65.3846C108.852 62.6597 109.284 62.0515 109.284 56.3271C109.284 54.4462 109.175 52.3038 109.043 51.5667C108.65 49.3817 107.242 46.7387 105.592 45.0871C104.006 43.4991 102.738 42.7758 97.9438 40.7242L94.8408 39.3963V37.2777V35.1593L95.6948 34.1881C96.8225 32.9056 97.6805 31.294 98.1057 29.6602C98.5229 28.0567 98.5872 21.1916 98.2022 19.3437C97.5182 16.06 95.2809 13.2298 92.2127 11.7666C90.537 10.9675 90.3046 10.9183 87.9578 10.8663C86.3623 10.8308 85.153 10.9178 84.5727 11.1098ZM17.91 68.5815C17.6473 68.7988 16.477 70.8067 15.3093 73.0433L13.1867 77.1097L8.59717 77.9155C6.07302 78.3588 3.78042 78.8447 3.50261 78.9952C2.90233 79.3205 2.62227 80.2435 2.90323 80.9712C3.01426 81.2586 4.55921 83.0216 6.33683 84.8888L9.56869 88.2838L8.88558 92.9308C8.16975 97.7999 8.18803 98.4295 9.05957 98.8964C9.91149 99.3528 10.63 99.1269 14.7725 97.1L18.9339 95.0639L23.1343 97.1C25.6253 98.3075 27.6164 99.1361 28.0267 99.1361C29.2525 99.1361 29.9774 97.8421 29.4793 96.5429C29.3144 96.113 19.6957 91.2292 19.0135 91.2292C18.7626 91.2292 17.2276 91.8961 15.6025 92.7112C13.9777 93.5265 12.5916 94.1367 12.5223 94.0673C12.453 93.9982 12.6166 92.4611 12.8854 90.6516C13.2605 88.1292 13.316 87.2464 13.1235 86.8671C12.9854 86.5948 11.8478 85.3334 10.5953 84.0639C9.34302 82.7943 8.36382 81.7151 8.41979 81.6657C8.47553 81.6162 9.89208 81.3489 11.5677 81.0717C13.2433 80.7945 14.8664 80.45 15.1746 80.3059C15.565 80.1236 16.2062 79.137 17.2896 77.0521C18.1447 75.4063 18.9079 74.0619 18.986 74.0642C19.0639 74.0667 19.8174 75.3887 20.6605 77.0022C21.5034 78.6154 22.4174 80.0752 22.6915 80.246C22.9655 80.4166 24.6116 80.7891 26.3492 81.0735C28.0869 81.358 29.5524 81.6259 29.6059 81.6691C29.6594 81.712 28.5676 82.8994 27.1799 84.3075C25.1085 86.4091 24.6567 86.9875 24.6567 87.5373C24.6567 88.8106 26.1218 89.7504 27.1836 89.1585C27.4808 88.9927 29.369 87.1698 31.3795 85.1072C35.4161 80.9669 35.7068 80.4751 34.7657 79.3797C34.2625 78.7941 33.9088 78.6967 29.4978 77.9309L24.7695 77.1097L22.5932 72.9448C21.3962 70.654 20.2342 68.6463 20.0112 68.483C19.4441 68.0678 18.476 68.1132 17.91 68.5815ZM90.4265 68.6018C90.1857 68.8307 89.0334 70.8485 87.8653 73.0862L85.742 77.1546L81.0299 77.9523C75.7309 78.8492 75.433 78.9834 75.433 80.4699C75.433 81.3589 75.5621 81.5175 79.4775 85.4368C83.4108 89.3742 83.5423 89.4816 84.2731 89.3401C85.2159 89.1576 85.8155 88.4523 85.809 87.5331C85.8047 86.9452 85.401 86.3988 83.4496 84.3389C82.1549 82.9721 81.0908 81.7931 81.0852 81.7185C81.0796 81.6442 82.4656 81.3535 84.1659 81.0722C85.8658 80.7912 87.4832 80.4579 87.7601 80.3314C88.0824 80.1846 88.8558 78.9782 89.9085 76.9809L91.5532 73.8597L92.3061 75.2588C92.7202 76.0282 93.4663 77.4359 93.9639 78.387C94.5987 79.6001 95.0496 80.1884 95.4754 80.3585C95.809 80.4918 97.4022 80.8185 99.0158 81.0848C100.629 81.351 101.988 81.6038 102.035 81.6465C102.082 81.6892 101.041 82.8598 99.7219 84.2478C96.9432 87.1716 97.0443 86.8063 97.7547 91.3422C97.9883 92.8332 98.1521 94.0825 98.1187 94.1182C98.0856 94.1541 96.7121 93.5186 95.067 92.7062C93.4216 91.8938 91.8335 91.2292 91.5379 91.2292C90.9013 91.2292 82.0926 95.5835 81.3569 96.2619C80.721 96.8479 80.7049 97.7621 81.317 98.5409C82.1091 99.5491 82.8795 99.365 87.4467 97.0765L91.5569 95.0166L95.7377 97.0973C100.383 99.409 101.06 99.5527 101.911 98.4069L102.369 97.7908L101.662 92.9891L100.956 88.1873L104.33 84.765C107.388 81.6639 107.704 81.2685 107.704 80.5503C107.704 78.9974 107.411 78.8605 102.136 77.9465L97.3639 77.1199L95.3689 73.292C94.2717 71.1867 93.1363 69.1766 92.8461 68.8253C92.2172 68.0637 91.101 67.9607 90.4265 68.6018ZM54.3769 73.2249C53.8644 73.4438 53.2496 74.4383 51.1373 78.4652C49.7034 81.1987 48.5053 83.4626 48.4748 83.4958C48.4442 83.5292 46.043 83.9625 43.1388 84.4588C40.2346 84.9552 37.6353 85.4569 37.3627 85.574C36.6036 85.8997 36.0897 86.8278 36.27 87.5471C36.3637 87.9205 37.9768 89.7303 40.394 92.174L44.3642 96.1873L43.5317 101.846C42.857 106.432 42.7502 107.599 42.9675 108.008C43.3268 108.683 43.8488 109.06 44.4358 109.069C44.7018 109.073 47.2271 107.939 50.0476 106.55L55.1753 104.024L60.2279 106.55C63.0068 107.939 65.4274 109.076 65.607 109.076C66.2326 109.076 67.0351 108.571 67.2865 108.019C67.4873 107.577 67.3684 106.299 66.7094 101.82L65.8794 96.1781L69.8494 92.1787C72.3239 89.686 73.8777 87.9447 73.974 87.5566C74.1451 86.8677 73.6949 85.9801 72.9802 85.5972C72.7482 85.473 70.1469 84.9662 67.1994 84.4713C64.2521 83.9763 61.8123 83.5407 61.7776 83.5032C61.743 83.466 60.5465 81.2084 59.1185 78.4871C57.6906 75.7655 56.3851 73.465 56.2174 73.3749C55.5452 73.0137 54.9794 72.9674 54.3769 73.2249ZM57.2264 82.6475C58.3216 84.7591 59.3929 86.5808 59.6073 86.6956C59.9397 86.8736 67.6218 88.2924 68.2535 88.2924C68.374 88.2924 67.1195 89.7224 65.4655 91.47C63.8116 93.2177 62.3758 94.7948 62.2754 94.9748C62.1723 95.1592 62.3596 97.1257 62.7044 99.4809C63.0411 101.779 63.2652 103.711 63.2022 103.774C63.1395 103.837 61.386 103.073 59.306 102.077C57.2257 101.081 55.3418 100.266 55.1196 100.266C54.8973 100.266 53.0273 101.093 50.9642 102.105C48.9011 103.117 47.1468 103.878 47.0655 103.797C46.9845 103.716 47.1957 101.771 47.5354 99.4755C47.8807 97.1398 48.0723 95.1599 47.9703 94.9798C47.8701 94.8029 46.4336 93.2258 44.7783 91.4752C43.123 89.7246 41.8802 88.2924 42.0168 88.2924C42.6708 88.2924 50.2881 86.8829 50.6332 86.6981C50.8501 86.582 51.9234 84.7591 53.0185 82.6475C54.1137 80.5356 55.0604 78.8079 55.1225 78.8079C55.1845 78.8079 56.1312 80.5356 57.2264 82.6475Z" stroke="url(#paint1_linear_1035_373)" stroke-width="1.91715" mask="url(#path-1-outside-1_1035_373)"/>
</g>
<defs>
<linearGradient id="paint0_linear_1035_373" x1="10.0713" y1="9.86371" x2="119.349" y2="50.1239" gradientUnits="userSpaceOnUse">
<stop stop-color="white"/>
<stop offset="0.446873" stop-color="white" stop-opacity="0.1"/>
</linearGradient>
<linearGradient id="paint1_linear_1035_373" x1="10.0713" y1="9.86371" x2="93.4674" y2="39.5796" gradientUnits="userSpaceOnUse">
<stop stop-color="white"/>
<stop offset="0.583333" stop-color="white" stop-opacity="0.1"/>
</linearGradient>
</defs>
</svg>
