<svg width="56" height="69" viewBox="0 0 56 69" fill="none" xmlns="http://www.w3.org/2000/svg">
<path fill-rule="evenodd" clip-rule="evenodd" d="M5.77907 1.08976C3.26134 1.75599 1.20875 3.85868 0.696832 6.29575C0.586104 6.82281 0.551168 15.9381 0.577876 37.2863L0.615844 67.5299L0.913525 67.9218C1.39166 68.5511 1.90661 68.8536 2.63811 68.9346C3.29151 69.007 3.51383 68.9165 7.62651 66.9057L11.9311 64.801L15.0426 66.8351C17.7319 68.5931 18.2473 68.8779 18.841 68.9335C19.4909 68.9945 19.7623 68.883 23.8948 66.8573L28.2618 64.7169L32.6289 66.8573C36.7613 68.883 37.0327 68.9945 37.6826 68.9335C38.2763 68.8779 38.7917 68.5931 41.481 66.8351L44.5926 64.801L48.8971 66.9057C53.0098 68.9165 53.2321 69.007 53.8855 68.9346C54.617 68.8536 55.1319 68.5511 55.6101 67.9218L55.9078 67.5299L55.9457 37.2863C55.9724 15.9381 55.9375 6.82281 55.8268 6.29575C55.3082 3.82704 53.2481 1.73925 50.6827 1.08267C49.4769 0.773955 6.94655 0.780623 5.77907 1.08976ZM50.2941 5.77437C50.5134 5.93526 50.8267 6.24312 50.9904 6.45862L51.2881 6.85047L51.3252 34.9289L51.3624 63.0074L48.1491 61.435C45.1507 59.9677 44.8901 59.8669 44.2493 59.9263C43.655 59.9815 43.1428 60.2644 40.4509 62.0242L37.3394 64.0582L33.0531 61.9689C29.9946 60.4779 28.6224 59.8796 28.2618 59.8796C27.9012 59.8796 26.529 60.4779 23.4705 61.9689L19.1843 64.0582L16.0727 62.0242C13.3808 60.2644 12.8686 59.9815 12.2744 59.9263C11.6335 59.8669 11.3729 59.9676 8.37548 61.4344L5.16335 63.0064V35.14C5.16335 15.7464 5.21013 7.15223 5.31739 6.87431C5.5221 6.34314 6.00356 5.84332 6.53482 5.61037C6.89126 5.45417 10.7639 5.42594 28.4317 5.45119C49.8606 5.48183 49.8961 5.48226 50.2941 5.77437ZM13.4571 14.6892C12.5019 15.1005 11.9514 16.1881 12.1561 17.2602C12.2827 17.9234 13.0035 18.7073 13.6582 18.8937C14.0189 18.9964 18.7468 19.0307 28.5761 19.0018C42.8511 18.9599 42.9692 18.9574 43.3646 18.6671C44.1222 18.1113 44.3585 17.6579 44.3585 16.7607C44.3585 15.8635 44.1222 15.41 43.3646 14.8542C42.9689 14.5638 42.8615 14.5614 28.4317 14.5307C16.5691 14.5053 13.8165 14.5345 13.4571 14.6892ZM36.5628 23.7629C35.7492 24.133 35.1913 24.975 35.1913 25.8331C35.1913 26.1791 35.0797 26.2861 34.3612 26.6298C33.3329 27.1216 31.8923 28.5078 31.3831 29.4952C30.0089 32.1603 30.4368 35.1576 32.4972 37.2985C33.7481 38.5984 35.1574 39.2471 37.1655 39.4471C38.4676 39.5768 38.8797 39.7689 39.4412 40.5079C39.8585 41.0572 39.8585 42.403 39.4412 42.9523C38.8755 43.6967 38.4142 43.9291 37.5012 43.9291C36.145 43.9291 35.4064 43.226 35.1913 41.7301C34.9762 40.2342 34.2377 39.5311 32.8815 39.5311C31.1111 39.5311 30.2565 40.903 30.7049 43.0253C31.112 44.9524 32.6329 46.924 34.3433 47.7421C35.1262 48.1163 35.1583 48.1539 35.2297 48.777C35.3096 49.4721 35.6226 49.9807 36.2575 50.4464C36.8165 50.8566 38.1859 50.8566 38.7449 50.4464C39.3798 49.9807 39.6928 49.4721 39.7726 48.777C39.8441 48.1539 39.8761 48.1163 40.659 47.7421C41.669 47.259 43.1145 45.864 43.6192 44.8852C44.9935 42.2201 44.5656 39.2228 42.5052 37.082C41.2542 35.782 39.845 35.1334 37.8368 34.9333C36.5348 34.8036 36.1226 34.6115 35.5612 33.8725C35.1438 33.3232 35.1438 31.9774 35.5612 31.4281C36.1268 30.6837 36.5882 30.4513 37.5012 30.4513C38.8574 30.4513 39.5959 31.1544 39.811 32.6503C40.0261 34.1462 40.7647 34.8493 42.1209 34.8493C43.8912 34.8493 44.7459 33.4774 44.2975 31.3552C43.8904 29.428 42.3695 27.4564 40.659 26.6383C39.8761 26.2641 39.8441 26.2265 39.7726 25.6034C39.6449 24.4896 38.8234 23.7061 37.6923 23.6193C37.2878 23.5882 36.8144 23.6485 36.5628 23.7629ZM13.4571 26.0374C12.5006 26.4526 11.9516 27.5382 12.1561 28.6099C12.2826 29.2723 13.0028 30.0565 13.6582 30.2452C14.0037 30.3446 15.9668 30.3821 19.3369 30.3533C24.2772 30.3113 24.5038 30.2975 24.886 30.0169C25.6434 29.4609 25.8798 29.0075 25.8798 28.1104C25.8798 27.2134 25.6434 26.7599 24.886 26.2039C24.5025 25.9225 24.2881 25.9101 19.1925 25.8789C15.0102 25.8531 13.8049 25.8864 13.4571 26.0374ZM13.4571 35.1172C12.5006 35.5324 11.9516 36.618 12.1561 37.6897C12.2826 38.3521 13.0028 39.1363 13.6582 39.325C14.0037 39.4244 15.9668 39.4619 19.3369 39.4331C24.2772 39.3911 24.5038 39.3773 24.886 39.0967C25.6434 38.5407 25.8798 38.0873 25.8798 37.1902C25.8798 36.2932 25.6434 35.8397 24.886 35.2837C24.5025 35.0023 24.2881 34.9899 19.1925 34.9587C15.0102 34.9329 13.8049 34.9662 13.4571 35.1172ZM13.4571 44.197C12.5006 44.6122 11.9516 45.6978 12.1561 46.7695C12.2826 47.4319 13.0028 48.2161 13.6582 48.4048C14.0037 48.5042 15.9668 48.5417 19.3369 48.5129C24.2772 48.4709 24.5038 48.4571 24.886 48.1765C25.6434 47.6205 25.8798 47.1671 25.8798 46.27C25.8798 45.373 25.6434 44.9195 24.886 44.3635C24.5025 44.0821 24.2881 44.0697 19.1925 44.0385C15.0102 44.0127 13.8049 44.046 13.4571 44.197Z" fill="url(#paint0_linear_1035_254)"/>
<defs>
<linearGradient id="paint0_linear_1035_254" x1="2.97738" y1="25.2803" x2="53.5616" y2="43.0693" gradientUnits="userSpaceOnUse">
<stop stop-color="#948D73"/>
<stop offset="0.556085" stop-color="#958E74" stop-opacity="0.285417"/>
<stop offset="1" stop-color="#968F74" stop-opacity="0.1"/>
</linearGradient>
</defs>
</svg>
